<?xml version="1.0" encoding="utf-8"?>
<svg xmlns="http://www.w3.org/2000/svg" xmlns:xlink="http://www.w3.org/1999/xlink" width="600" height="400" viewBox="0 0 2400 1600">
<defs>
  <clipPath id="clip630">
    <rect x="0" y="0" width="2400" height="1600"/>
  </clipPath>
</defs>
<path clip-path="url(#clip630)" d="M0 1600 L2400 1600 L2400 0 L0 0  Z" fill="#ffffff" fill-rule="evenodd" fill-opacity="1"/>
<defs>
  <clipPath id="clip631">
    <rect x="480" y="0" width="1681" height="1600"/>
  </clipPath>
</defs>
<path clip-path="url(#clip630)" d="M242.135 1423.18 L2352.76 1423.18 L2352.76 47.2441 L242.135 47.2441  Z" fill="#ffffff" fill-rule="evenodd" fill-opacity="1"/>
<defs>
  <clipPath id="clip632">
    <rect x="242" y="47" width="2112" height="1377"/>
  </clipPath>
</defs>
<polyline clip-path="url(#clip632)" style="stroke:#000000; stroke-linecap:round; stroke-linejoin:round; stroke-width:2; stroke-opacity:0.1; fill:none" points="523.108,1423.18 523.108,47.2441 "/>
<polyline clip-path="url(#clip632)" style="stroke:#000000; stroke-linecap:round; stroke-linejoin:round; stroke-width:2; stroke-opacity:0.1; fill:none" points="965.587,1423.18 965.587,47.2441 "/>
<polyline clip-path="url(#clip632)" style="stroke:#000000; stroke-linecap:round; stroke-linejoin:round; stroke-width:2; stroke-opacity:0.1; fill:none" points="1408.06,1423.18 1408.06,47.2441 "/>
<polyline clip-path="url(#clip632)" style="stroke:#000000; stroke-linecap:round; stroke-linejoin:round; stroke-width:2; stroke-opacity:0.1; fill:none" points="1850.54,1423.18 1850.54,47.2441 "/>
<polyline clip-path="url(#clip632)" style="stroke:#000000; stroke-linecap:round; stroke-linejoin:round; stroke-width:2; stroke-opacity:0.1; fill:none" points="2293.02,1423.18 2293.02,47.2441 "/>
<polyline clip-path="url(#clip630)" style="stroke:#000000; stroke-linecap:round; stroke-linejoin:round; stroke-width:4; stroke-opacity:1; fill:none" points="242.135,1423.18 2352.76,1423.18 "/>
<polyline clip-path="url(#clip630)" style="stroke:#000000; stroke-linecap:round; stroke-linejoin:round; stroke-width:4; stroke-opacity:1; fill:none" points="523.108,1423.18 523.108,1404.28 "/>
<polyline clip-path="url(#clip630)" style="stroke:#000000; stroke-linecap:round; stroke-linejoin:round; stroke-width:4; stroke-opacity:1; fill:none" points="965.587,1423.18 965.587,1404.28 "/>
<polyline clip-path="url(#clip630)" style="stroke:#000000; stroke-linecap:round; stroke-linejoin:round; stroke-width:4; stroke-opacity:1; fill:none" points="1408.06,1423.18 1408.06,1404.28 "/>
<polyline clip-path="url(#clip630)" style="stroke:#000000; stroke-linecap:round; stroke-linejoin:round; stroke-width:4; stroke-opacity:1; fill:none" points="1850.54,1423.18 1850.54,1404.28 "/>
<polyline clip-path="url(#clip630)" style="stroke:#000000; stroke-linecap:round; stroke-linejoin:round; stroke-width:4; stroke-opacity:1; fill:none" points="2293.02,1423.18 2293.02,1404.28 "/>
<path clip-path="url(#clip630)" d="M497.796 1481.64 L505.435 1481.64 L505.435 1455.28 L497.125 1456.95 L497.125 1452.69 L505.389 1451.02 L510.064 1451.02 L510.064 1481.64 L517.703 1481.64 L517.703 1485.58 L497.796 1485.58 L497.796 1481.64 Z" fill="#000000" fill-rule="evenodd" fill-opacity="1" /><path clip-path="url(#clip630)" d="M537.148 1454.1 Q533.537 1454.1 531.708 1457.66 Q529.902 1461.2 529.902 1468.33 Q529.902 1475.44 531.708 1479.01 Q533.537 1482.55 537.148 1482.55 Q540.782 1482.55 542.587 1479.01 Q544.416 1475.44 544.416 1468.33 Q544.416 1461.2 542.587 1457.66 Q540.782 1454.1 537.148 1454.1 M537.148 1450.39 Q542.958 1450.39 546.013 1455 Q549.092 1459.58 549.092 1468.33 Q549.092 1477.06 546.013 1481.67 Q542.958 1486.25 537.148 1486.25 Q531.337 1486.25 528.259 1481.67 Q525.203 1477.06 525.203 1468.33 Q525.203 1459.58 528.259 1455 Q531.337 1450.39 537.148 1450.39 Z" fill="#000000" fill-rule="evenodd" fill-opacity="1" /><path clip-path="url(#clip630)" d="M944.36 1481.64 L960.679 1481.64 L960.679 1485.58 L938.735 1485.58 L938.735 1481.64 Q941.397 1478.89 945.98 1474.26 Q950.587 1469.61 951.767 1468.27 Q954.013 1465.74 954.892 1464.01 Q955.795 1462.25 955.795 1460.56 Q955.795 1457.8 953.851 1456.07 Q951.929 1454.33 948.827 1454.33 Q946.628 1454.33 944.175 1455.09 Q941.744 1455.86 938.966 1457.41 L938.966 1452.69 Q941.79 1451.55 944.244 1450.97 Q946.698 1450.39 948.735 1450.39 Q954.105 1450.39 957.3 1453.08 Q960.494 1455.77 960.494 1460.26 Q960.494 1462.39 959.684 1464.31 Q958.897 1466.2 956.79 1468.8 Q956.212 1469.47 953.11 1472.69 Q950.008 1475.88 944.36 1481.64 Z" fill="#000000" fill-rule="evenodd" fill-opacity="1" /><path clip-path="url(#clip630)" d="M980.494 1454.1 Q976.883 1454.1 975.054 1457.66 Q973.249 1461.2 973.249 1468.33 Q973.249 1475.44 975.054 1479.01 Q976.883 1482.55 980.494 1482.55 Q984.128 1482.55 985.934 1479.01 Q987.762 1475.44 987.762 1468.33 Q987.762 1461.2 985.934 1457.66 Q984.128 1454.1 980.494 1454.1 M980.494 1450.39 Q986.304 1450.39 989.36 1455 Q992.438 1459.58 992.438 1468.33 Q992.438 1477.06 989.36 1481.67 Q986.304 1486.25 980.494 1486.25 Q974.684 1486.25 971.605 1481.67 Q968.55 1477.06 968.55 1468.33 Q968.55 1459.58 971.605 1455 Q974.684 1450.39 980.494 1450.39 Z" fill="#000000" fill-rule="evenodd" fill-opacity="1" /><path clip-path="url(#clip630)" d="M1396.91 1466.95 Q1400.26 1467.66 1402.14 1469.93 Q1404.04 1472.2 1404.04 1475.53 Q1404.04 1480.65 1400.52 1483.45 Q1397 1486.25 1390.52 1486.25 Q1388.34 1486.25 1386.03 1485.81 Q1383.74 1485.39 1381.28 1484.54 L1381.28 1480.02 Q1383.23 1481.16 1385.54 1481.74 Q1387.86 1482.32 1390.38 1482.32 Q1394.78 1482.32 1397.07 1480.58 Q1399.38 1478.84 1399.38 1475.53 Q1399.38 1472.48 1397.23 1470.77 Q1395.1 1469.03 1391.28 1469.03 L1387.25 1469.03 L1387.25 1465.19 L1391.47 1465.19 Q1394.92 1465.19 1396.75 1463.82 Q1398.57 1462.43 1398.57 1459.84 Q1398.57 1457.18 1396.68 1455.77 Q1394.8 1454.33 1391.28 1454.33 Q1389.36 1454.33 1387.16 1454.75 Q1384.96 1455.16 1382.32 1456.04 L1382.32 1451.88 Q1384.99 1451.14 1387.3 1450.77 Q1389.64 1450.39 1391.7 1450.39 Q1397.02 1450.39 1400.13 1452.83 Q1403.23 1455.23 1403.23 1459.35 Q1403.23 1462.22 1401.58 1464.21 Q1399.94 1466.18 1396.91 1466.95 Z" fill="#000000" fill-rule="evenodd" fill-opacity="1" /><path clip-path="url(#clip630)" d="M1422.9 1454.1 Q1419.29 1454.1 1417.46 1457.66 Q1415.66 1461.2 1415.66 1468.33 Q1415.66 1475.44 1417.46 1479.01 Q1419.29 1482.55 1422.9 1482.55 Q1426.54 1482.55 1428.34 1479.01 Q1430.17 1475.44 1430.17 1468.33 Q1430.17 1461.2 1428.34 1457.66 Q1426.54 1454.1 1422.9 1454.1 M1422.9 1450.39 Q1428.71 1450.39 1431.77 1455 Q1434.85 1459.58 1434.85 1468.33 Q1434.85 1477.06 1431.77 1481.67 Q1428.71 1486.25 1422.9 1486.25 Q1417.09 1486.25 1414.01 1481.67 Q1410.96 1477.06 1410.96 1468.33 Q1410.96 1459.58 1414.01 1455 Q1417.09 1450.39 1422.9 1450.39 Z" fill="#000000" fill-rule="evenodd" fill-opacity="1" /><path clip-path="url(#clip630)" d="M1838.71 1455.09 L1826.91 1473.54 L1838.71 1473.54 L1838.71 1455.09 M1837.49 1451.02 L1843.37 1451.02 L1843.37 1473.54 L1848.3 1473.54 L1848.3 1477.43 L1843.37 1477.43 L1843.37 1485.58 L1838.71 1485.58 L1838.71 1477.43 L1823.11 1477.43 L1823.11 1472.92 L1837.49 1451.02 Z" fill="#000000" fill-rule="evenodd" fill-opacity="1" /><path clip-path="url(#clip630)" d="M1866.03 1454.1 Q1862.42 1454.1 1860.59 1457.66 Q1858.78 1461.2 1858.78 1468.33 Q1858.78 1475.44 1860.59 1479.01 Q1862.42 1482.55 1866.03 1482.55 Q1869.66 1482.55 1871.47 1479.01 Q1873.3 1475.44 1873.3 1468.33 Q1873.3 1461.2 1871.47 1457.66 Q1869.66 1454.1 1866.03 1454.1 M1866.03 1450.39 Q1871.84 1450.39 1874.89 1455 Q1877.97 1459.58 1877.97 1468.33 Q1877.97 1477.06 1874.89 1481.67 Q1871.84 1486.25 1866.03 1486.25 Q1860.22 1486.25 1857.14 1481.67 Q1854.08 1477.06 1854.08 1468.33 Q1854.08 1459.58 1857.14 1455 Q1860.22 1450.39 1866.03 1450.39 Z" fill="#000000" fill-rule="evenodd" fill-opacity="1" /><path clip-path="url(#clip630)" d="M2267.72 1451.02 L2286.08 1451.02 L2286.08 1454.96 L2272 1454.96 L2272 1463.43 Q2273.02 1463.08 2274.04 1462.92 Q2275.06 1462.73 2276.08 1462.73 Q2281.86 1462.73 2285.24 1465.9 Q2288.62 1469.08 2288.62 1474.49 Q2288.62 1480.07 2285.15 1483.17 Q2281.68 1486.25 2275.36 1486.25 Q2273.18 1486.25 2270.91 1485.88 Q2268.67 1485.51 2266.26 1484.77 L2266.26 1480.07 Q2268.35 1481.2 2270.57 1481.76 Q2272.79 1482.32 2275.27 1482.32 Q2279.27 1482.32 2281.61 1480.21 Q2283.95 1478.1 2283.95 1474.49 Q2283.95 1470.88 2281.61 1468.77 Q2279.27 1466.67 2275.27 1466.67 Q2273.39 1466.67 2271.52 1467.08 Q2269.66 1467.5 2267.72 1468.38 L2267.72 1451.02 Z" fill="#000000" fill-rule="evenodd" fill-opacity="1" /><path clip-path="url(#clip630)" d="M2307.84 1454.1 Q2304.22 1454.1 2302.4 1457.66 Q2300.59 1461.2 2300.59 1468.33 Q2300.59 1475.44 2302.4 1479.01 Q2304.22 1482.55 2307.84 1482.55 Q2311.47 1482.55 2313.28 1479.01 Q2315.1 1475.44 2315.1 1468.33 Q2315.1 1461.2 2313.28 1457.66 Q2311.47 1454.1 2307.84 1454.1 M2307.84 1450.39 Q2313.65 1450.39 2316.7 1455 Q2319.78 1459.58 2319.78 1468.33 Q2319.78 1477.06 2316.7 1481.67 Q2313.65 1486.25 2307.84 1486.25 Q2302.03 1486.25 2298.95 1481.67 Q2295.89 1477.06 2295.89 1468.33 Q2295.89 1459.58 2298.95 1455 Q2302.03 1450.39 2307.84 1450.39 Z" fill="#000000" fill-rule="evenodd" fill-opacity="1" /><path clip-path="url(#clip630)" d="M1174.28 1518.52 L1174.28 1523.39 L1168.68 1523.39 Q1165.53 1523.39 1164.29 1524.66 Q1163.08 1525.93 1163.08 1529.24 L1163.08 1532.4 L1172.73 1532.4 L1172.73 1536.95 L1163.08 1536.95 L1163.08 1568.04 L1157.19 1568.04 L1157.19 1536.95 L1151.59 1536.95 L1151.59 1532.4 L1157.19 1532.4 L1157.19 1529.91 Q1157.19 1523.96 1159.96 1521.26 Q1162.73 1518.52 1168.75 1518.52 L1174.28 1518.52 Z" fill="#000000" fill-rule="evenodd" fill-opacity="1" /><path clip-path="url(#clip630)" d="M1195.39 1550.12 Q1188.29 1550.12 1185.55 1551.75 Q1182.81 1553.37 1182.81 1557.29 Q1182.81 1560.4 1184.85 1562.25 Q1186.92 1564.07 1190.45 1564.07 Q1195.32 1564.07 1198.25 1560.63 Q1201.21 1557.16 1201.21 1551.43 L1201.21 1550.12 L1195.39 1550.12 M1207.07 1547.71 L1207.07 1568.04 L1201.21 1568.04 L1201.21 1562.63 Q1199.21 1565.88 1196.21 1567.44 Q1193.22 1568.97 1188.89 1568.97 Q1183.42 1568.97 1180.17 1565.91 Q1176.96 1562.82 1176.96 1557.67 Q1176.96 1551.65 1180.97 1548.6 Q1185.01 1545.54 1193 1545.54 L1201.21 1545.54 L1201.21 1544.97 Q1201.21 1540.93 1198.54 1538.73 Q1195.9 1536.5 1191.09 1536.5 Q1188.03 1536.5 1185.14 1537.23 Q1182.24 1537.97 1179.57 1539.43 L1179.57 1534.02 Q1182.78 1532.78 1185.81 1532.17 Q1188.83 1531.54 1191.69 1531.54 Q1199.43 1531.54 1203.25 1535.55 Q1207.07 1539.56 1207.07 1547.71 Z" fill="#000000" fill-rule="evenodd" fill-opacity="1" /><path clip-path="url(#clip630)" d="M1239.79 1537.87 Q1238.8 1537.3 1237.62 1537.04 Q1236.48 1536.76 1235.08 1536.76 Q1230.11 1536.76 1227.44 1540 Q1224.8 1543.22 1224.8 1549.27 L1224.8 1568.04 L1218.91 1568.04 L1218.91 1532.4 L1224.8 1532.4 L1224.8 1537.93 Q1226.64 1534.69 1229.6 1533.13 Q1232.56 1531.54 1236.8 1531.54 Q1237.4 1531.54 1238.13 1531.63 Q1238.86 1531.7 1239.76 1531.85 L1239.79 1537.87 Z" fill="#000000" fill-rule="evenodd" fill-opacity="1" /><path clip-path="url(#clip630)" d="M1274.99 1548.76 L1274.99 1551.62 L1248.06 1551.62 Q1248.45 1557.67 1251.69 1560.85 Q1254.97 1564 1260.79 1564 Q1264.17 1564 1267.32 1563.17 Q1270.5 1562.35 1273.62 1560.69 L1273.62 1566.23 Q1270.47 1567.57 1267.16 1568.27 Q1263.85 1568.97 1260.44 1568.97 Q1251.91 1568.97 1246.92 1564 Q1241.95 1559.04 1241.95 1550.57 Q1241.95 1541.82 1246.66 1536.69 Q1251.41 1531.54 1259.43 1531.54 Q1266.62 1531.54 1270.79 1536.18 Q1274.99 1540.8 1274.99 1548.76 M1269.13 1547.04 Q1269.07 1542.23 1266.43 1539.37 Q1263.82 1536.5 1259.49 1536.5 Q1254.59 1536.5 1251.63 1539.27 Q1248.7 1542.04 1248.25 1547.07 L1269.13 1547.04 Z" fill="#000000" fill-rule="evenodd" fill-opacity="1" /><path clip-path="url(#clip630)" d="M1314.23 1546.53 L1314.23 1568.04 L1308.38 1568.04 L1308.38 1546.72 Q1308.38 1541.66 1306.41 1539.14 Q1304.43 1536.63 1300.48 1536.63 Q1295.74 1536.63 1293.01 1539.65 Q1290.27 1542.68 1290.27 1547.9 L1290.27 1568.04 L1284.38 1568.04 L1284.38 1532.4 L1290.27 1532.4 L1290.27 1537.93 Q1292.37 1534.72 1295.2 1533.13 Q1298.07 1531.54 1301.79 1531.54 Q1307.93 1531.54 1311.08 1535.36 Q1314.23 1539.14 1314.23 1546.53 Z" fill="#000000" fill-rule="evenodd" fill-opacity="1" /><path clip-path="url(#clip630)" d="M1355.55 1546.53 L1355.55 1568.04 L1349.69 1568.04 L1349.69 1546.72 Q1349.69 1541.66 1347.72 1539.14 Q1345.75 1536.63 1341.8 1536.63 Q1337.06 1536.63 1334.32 1539.65 Q1331.58 1542.68 1331.58 1547.9 L1331.58 1568.04 L1325.69 1568.04 L1325.69 1518.52 L1331.58 1518.52 L1331.58 1537.93 Q1333.68 1534.72 1336.51 1533.13 Q1339.38 1531.54 1343.1 1531.54 Q1349.25 1531.54 1352.4 1535.36 Q1355.55 1539.14 1355.55 1546.53 Z" fill="#000000" fill-rule="evenodd" fill-opacity="1" /><path clip-path="url(#clip630)" d="M1397.72 1548.76 L1397.72 1551.62 L1370.79 1551.62 Q1371.18 1557.67 1374.42 1560.85 Q1377.7 1564 1383.53 1564 Q1386.9 1564 1390.05 1563.17 Q1393.23 1562.35 1396.35 1560.69 L1396.35 1566.23 Q1393.2 1567.57 1389.89 1568.27 Q1386.58 1568.97 1383.18 1568.97 Q1374.65 1568.97 1369.65 1564 Q1364.68 1559.04 1364.68 1550.57 Q1364.68 1541.82 1369.39 1536.69 Q1374.14 1531.54 1382.16 1531.54 Q1389.35 1531.54 1393.52 1536.18 Q1397.72 1540.8 1397.72 1548.76 M1391.86 1547.04 Q1391.8 1542.23 1389.16 1539.37 Q1386.55 1536.5 1382.22 1536.5 Q1377.32 1536.5 1374.36 1539.27 Q1371.43 1542.04 1370.99 1547.07 L1391.86 1547.04 Z" fill="#000000" fill-rule="evenodd" fill-opacity="1" /><path clip-path="url(#clip630)" d="M1407.33 1532.4 L1413.19 1532.4 L1413.19 1568.04 L1407.33 1568.04 L1407.33 1532.4 M1407.33 1518.52 L1413.19 1518.52 L1413.19 1525.93 L1407.33 1525.93 L1407.33 1518.52 Z" fill="#000000" fill-rule="evenodd" fill-opacity="1" /><path clip-path="url(#clip630)" d="M1431.24 1522.27 L1431.24 1532.4 L1443.3 1532.4 L1443.3 1536.95 L1431.24 1536.95 L1431.24 1556.3 Q1431.24 1560.66 1432.41 1561.9 Q1433.62 1563.14 1437.28 1563.14 L1443.3 1563.14 L1443.3 1568.04 L1437.28 1568.04 Q1430.5 1568.04 1427.93 1565.53 Q1425.35 1562.98 1425.35 1556.3 L1425.35 1536.95 L1421.05 1536.95 L1421.05 1532.4 L1425.35 1532.4 L1425.35 1522.27 L1431.24 1522.27 Z" fill="#000000" fill-rule="evenodd" fill-opacity="1" /><polyline clip-path="url(#clip632)" style="stroke:#000000; stroke-linecap:round; stroke-linejoin:round; stroke-width:2; stroke-opacity:0.1; fill:none" points="242.135,1384.24 2352.76,1384.24 "/>
<polyline clip-path="url(#clip632)" style="stroke:#000000; stroke-linecap:round; stroke-linejoin:round; stroke-width:2; stroke-opacity:0.1; fill:none" points="242.135,969.336 2352.76,969.336 "/>
<polyline clip-path="url(#clip632)" style="stroke:#000000; stroke-linecap:round; stroke-linejoin:round; stroke-width:2; stroke-opacity:0.1; fill:none" points="242.135,554.433 2352.76,554.433 "/>
<polyline clip-path="url(#clip632)" style="stroke:#000000; stroke-linecap:round; stroke-linejoin:round; stroke-width:2; stroke-opacity:0.1; fill:none" points="242.135,139.53 2352.76,139.53 "/>
<polyline clip-path="url(#clip630)" style="stroke:#000000; stroke-linecap:round; stroke-linejoin:round; stroke-width:4; stroke-opacity:1; fill:none" points="242.135,1423.18 242.135,47.2441 "/>
<polyline clip-path="url(#clip630)" style="stroke:#000000; stroke-linecap:round; stroke-linejoin:round; stroke-width:4; stroke-opacity:1; fill:none" points="242.135,1384.24 261.032,1384.24 "/>
<polyline clip-path="url(#clip630)" style="stroke:#000000; stroke-linecap:round; stroke-linejoin:round; stroke-width:4; stroke-opacity:1; fill:none" points="242.135,969.336 261.032,969.336 "/>
<polyline clip-path="url(#clip630)" style="stroke:#000000; stroke-linecap:round; stroke-linejoin:round; stroke-width:4; stroke-opacity:1; fill:none" points="242.135,554.433 261.032,554.433 "/>
<polyline clip-path="url(#clip630)" style="stroke:#000000; stroke-linecap:round; stroke-linejoin:round; stroke-width:4; stroke-opacity:1; fill:none" points="242.135,139.53 261.032,139.53 "/>
<path clip-path="url(#clip630)" d="M114.26 1384.69 L143.936 1384.69 L143.936 1388.62 L114.26 1388.62 L114.26 1384.69 Z" fill="#000000" fill-rule="evenodd" fill-opacity="1" /><path clip-path="url(#clip630)" d="M158.056 1397.58 L174.376 1397.58 L174.376 1401.52 L152.431 1401.52 L152.431 1397.58 Q155.093 1394.83 159.677 1390.2 Q164.283 1385.55 165.464 1384.2 Q167.709 1381.68 168.589 1379.94 Q169.491 1378.19 169.491 1376.5 Q169.491 1373.74 167.547 1372 Q165.626 1370.27 162.524 1370.27 Q160.325 1370.27 157.871 1371.03 Q155.44 1371.8 152.663 1373.35 L152.663 1368.62 Q155.487 1367.49 157.94 1366.91 Q160.394 1366.33 162.431 1366.33 Q167.802 1366.33 170.996 1369.02 Q174.19 1371.7 174.19 1376.19 Q174.19 1378.32 173.38 1380.25 Q172.593 1382.14 170.487 1384.74 Q169.908 1385.41 166.806 1388.62 Q163.704 1391.82 158.056 1397.58 Z" fill="#000000" fill-rule="evenodd" fill-opacity="1" /><path clip-path="url(#clip630)" d="M194.19 1370.04 Q190.579 1370.04 188.75 1373.6 Q186.945 1377.14 186.945 1384.27 Q186.945 1391.38 188.75 1394.94 Q190.579 1398.49 194.19 1398.49 Q197.825 1398.49 199.63 1394.94 Q201.459 1391.38 201.459 1384.27 Q201.459 1377.14 199.63 1373.6 Q197.825 1370.04 194.19 1370.04 M194.19 1366.33 Q200 1366.33 203.056 1370.94 Q206.135 1375.52 206.135 1384.27 Q206.135 1393 203.056 1397.61 Q200 1402.19 194.19 1402.19 Q188.38 1402.19 185.301 1397.61 Q182.246 1393 182.246 1384.27 Q182.246 1375.52 185.301 1370.94 Q188.38 1366.33 194.19 1366.33 Z" fill="#000000" fill-rule="evenodd" fill-opacity="1" /><path clip-path="url(#clip630)" d="M114.26 969.787 L143.936 969.787 L143.936 973.722 L114.26 973.722 L114.26 969.787 Z" fill="#000000" fill-rule="evenodd" fill-opacity="1" /><path clip-path="url(#clip630)" d="M154.839 982.68 L162.477 982.68 L162.477 956.315 L154.167 957.982 L154.167 953.722 L162.431 952.056 L167.107 952.056 L167.107 982.68 L174.746 982.68 L174.746 986.616 L154.839 986.616 L154.839 982.68 Z" fill="#000000" fill-rule="evenodd" fill-opacity="1" /><path clip-path="url(#clip630)" d="M194.19 955.134 Q190.579 955.134 188.75 958.699 Q186.945 962.241 186.945 969.37 Q186.945 976.477 188.75 980.042 Q190.579 983.583 194.19 983.583 Q197.825 983.583 199.63 980.042 Q201.459 976.477 201.459 969.37 Q201.459 962.241 199.63 958.699 Q197.825 955.134 194.19 955.134 M194.19 951.431 Q200 951.431 203.056 956.037 Q206.135 960.62 206.135 969.37 Q206.135 978.097 203.056 982.704 Q200 987.287 194.19 987.287 Q188.38 987.287 185.301 982.704 Q182.246 978.097 182.246 969.37 Q182.246 960.62 185.301 956.037 Q188.38 951.431 194.19 951.431 Z" fill="#000000" fill-rule="evenodd" fill-opacity="1" /><path clip-path="url(#clip630)" d="M194.19 540.232 Q190.579 540.232 188.75 543.796 Q186.945 547.338 186.945 554.468 Q186.945 561.574 188.75 565.139 Q190.579 568.681 194.19 568.681 Q197.825 568.681 199.63 565.139 Q201.459 561.574 201.459 554.468 Q201.459 547.338 199.63 543.796 Q197.825 540.232 194.19 540.232 M194.19 536.528 Q200 536.528 203.056 541.134 Q206.135 545.718 206.135 554.468 Q206.135 563.194 203.056 567.801 Q200 572.384 194.19 572.384 Q188.38 572.384 185.301 567.801 Q182.246 563.194 182.246 554.468 Q182.246 545.718 185.301 541.134 Q188.38 536.528 194.19 536.528 Z" fill="#000000" fill-rule="evenodd" fill-opacity="1" /><path clip-path="url(#clip630)" d="M154.839 152.875 L162.477 152.875 L162.477 126.51 L154.167 128.176 L154.167 123.917 L162.431 122.25 L167.107 122.25 L167.107 152.875 L174.746 152.875 L174.746 156.81 L154.839 156.81 L154.839 152.875 Z" fill="#000000" fill-rule="evenodd" fill-opacity="1" /><path clip-path="url(#clip630)" d="M194.19 125.329 Q190.579 125.329 188.75 128.894 Q186.945 132.435 186.945 139.565 Q186.945 146.671 188.75 150.236 Q190.579 153.778 194.19 153.778 Q197.825 153.778 199.63 150.236 Q201.459 146.671 201.459 139.565 Q201.459 132.435 199.63 128.894 Q197.825 125.329 194.19 125.329 M194.19 121.625 Q200 121.625 203.056 126.232 Q206.135 130.815 206.135 139.565 Q206.135 148.292 203.056 152.898 Q200 157.482 194.19 157.482 Q188.38 157.482 185.301 152.898 Q182.246 148.292 182.246 139.565 Q182.246 130.815 185.301 126.232 Q188.38 121.625 194.19 121.625 Z" fill="#000000" fill-rule="evenodd" fill-opacity="1" /><path clip-path="url(#clip630)" d="M29.7248 828.852 L35.1993 828.852 Q33.8307 831.334 33.1623 833.849 Q32.4621 836.331 32.4621 838.878 Q32.4621 844.575 36.0905 847.726 Q39.6872 850.877 46.212 850.877 Q52.7369 850.877 56.3653 847.726 Q59.9619 844.575 59.9619 838.878 Q59.9619 836.331 59.2935 833.849 Q58.5933 831.334 57.2247 828.852 L62.6355 828.852 Q63.7814 831.302 64.3543 833.944 Q64.9272 836.554 64.9272 839.514 Q64.9272 847.567 59.8664 852.309 Q54.8057 857.052 46.212 857.052 Q37.491 857.052 32.4939 852.277 Q27.4968 847.471 27.4968 839.132 Q27.4968 836.427 28.0697 833.849 Q28.6108 831.27 29.7248 828.852 Z" fill="#000000" fill-rule="evenodd" fill-opacity="1" /><path clip-path="url(#clip630)" d="M44.7161 788.175 L47.5806 788.175 L47.5806 815.102 Q53.6281 814.72 56.8109 811.473 Q59.9619 808.195 59.9619 802.37 Q59.9619 798.996 59.1344 795.845 Q58.3069 792.662 56.6518 789.543 L62.1899 789.543 Q63.5267 792.694 64.227 796.004 Q64.9272 799.315 64.9272 802.72 Q64.9272 811.25 59.9619 816.247 Q54.9967 821.213 46.5303 821.213 Q37.7774 821.213 32.6531 816.502 Q27.4968 811.76 27.4968 803.739 Q27.4968 796.546 32.1438 792.376 Q36.7589 788.175 44.7161 788.175 M42.9973 794.031 Q38.1912 794.095 35.3266 796.737 Q32.4621 799.346 32.4621 803.675 Q32.4621 808.577 35.2312 811.537 Q38.0002 814.465 43.0292 814.911 L42.9973 794.031 Z" fill="#000000" fill-rule="evenodd" fill-opacity="1" /><path clip-path="url(#clip630)" d="M14.479 778.562 L14.479 772.706 L64.0042 772.706 L64.0042 778.562 L14.479 778.562 Z" fill="#000000" fill-rule="evenodd" fill-opacity="1" /><path clip-path="url(#clip630)" d="M29.7248 734.798 L35.1993 734.798 Q33.8307 737.281 33.1623 739.795 Q32.4621 742.278 32.4621 744.824 Q32.4621 750.521 36.0905 753.673 Q39.6872 756.824 46.212 756.824 Q52.7369 756.824 56.3653 753.673 Q59.9619 750.521 59.9619 744.824 Q59.9619 742.278 59.2935 739.795 Q58.5933 737.281 57.2247 734.798 L62.6355 734.798 Q63.7814 737.249 64.3543 739.891 Q64.9272 742.501 64.9272 745.461 Q64.9272 753.513 59.8664 758.256 Q54.8057 762.998 46.212 762.998 Q37.491 762.998 32.4939 758.224 Q27.4968 753.418 27.4968 745.079 Q27.4968 742.373 28.0697 739.795 Q28.6108 737.217 29.7248 734.798 Z" fill="#000000" fill-rule="evenodd" fill-opacity="1" /><path clip-path="url(#clip630)" d="M28.3562 724.613 L28.3562 718.757 L64.0042 718.757 L64.0042 724.613 L28.3562 724.613 M14.479 724.613 L14.479 718.757 L21.895 718.757 L21.895 724.613 L14.479 724.613 Z" fill="#000000" fill-rule="evenodd" fill-opacity="1" /><path clip-path="url(#clip630)" d="M49.9359 707.107 L28.3562 707.107 L28.3562 701.251 L49.7131 701.251 Q54.7739 701.251 57.3202 699.278 Q59.8346 697.304 59.8346 693.357 Q59.8346 688.615 56.8109 685.878 Q53.7872 683.109 48.5673 683.109 L28.3562 683.109 L28.3562 677.252 L64.0042 677.252 L64.0042 683.109 L58.5296 683.109 Q61.7762 685.241 63.3676 688.074 Q64.9272 690.875 64.9272 694.599 Q64.9272 700.742 61.1078 703.925 Q57.2883 707.107 49.9359 707.107 M27.4968 692.371 L27.4968 692.371 Z" fill="#000000" fill-rule="evenodd" fill-opacity="1" /><path clip-path="url(#clip630)" d="M35.1993 637.435 Q31.2526 635.239 29.3747 632.183 Q27.4968 629.127 27.4968 624.99 Q27.4968 619.42 31.4117 616.396 Q35.2948 613.372 42.4881 613.372 L64.0042 613.372 L64.0042 619.261 L42.679 619.261 Q37.5546 619.261 35.072 621.075 Q32.5894 622.889 32.5894 626.613 Q32.5894 631.164 35.6131 633.806 Q38.6368 636.448 43.8567 636.448 L64.0042 636.448 L64.0042 642.336 L42.679 642.336 Q37.5228 642.336 35.072 644.151 Q32.5894 645.965 32.5894 649.752 Q32.5894 654.24 35.6449 656.882 Q38.6686 659.524 43.8567 659.524 L64.0042 659.524 L64.0042 665.412 L28.3562 665.412 L28.3562 659.524 L33.8944 659.524 Q30.616 657.519 29.0564 654.718 Q27.4968 651.917 27.4968 648.065 Q27.4968 644.182 29.4702 641.477 Q31.4436 638.74 35.1993 637.435 Z" fill="#000000" fill-rule="evenodd" fill-opacity="1" /><circle clip-path="url(#clip632)" cx="301.869" cy="1384.24" r="14.4" fill="#009af9" fill-rule="evenodd" fill-opacity="1" stroke="#000000" stroke-opacity="1" stroke-width="3.2"/>
<circle clip-path="url(#clip632)" cx="700.1" cy="927.845" r="14.4" fill="#009af9" fill-rule="evenodd" fill-opacity="1" stroke="#000000" stroke-opacity="1" stroke-width="3.2"/>
<circle clip-path="url(#clip632)" cx="1098.33" cy="761.884" r="14.4" fill="#009af9" fill-rule="evenodd" fill-opacity="1" stroke="#000000" stroke-opacity="1" stroke-width="3.2"/>
<circle clip-path="url(#clip632)" cx="1496.56" cy="512.943" r="14.4" fill="#009af9" fill-rule="evenodd" fill-opacity="1" stroke="#000000" stroke-opacity="1" stroke-width="3.2"/>
<circle clip-path="url(#clip632)" cx="1894.79" cy="388.472" r="14.4" fill="#009af9" fill-rule="evenodd" fill-opacity="1" stroke="#000000" stroke-opacity="1" stroke-width="3.2"/>
<circle clip-path="url(#clip632)" cx="2293.02" cy="98.04" r="14.4" fill="#009af9" fill-rule="evenodd" fill-opacity="1" stroke="#000000" stroke-opacity="1" stroke-width="3.2"/>
<polyline clip-path="url(#clip632)" style="stroke:#e26f46; stroke-linecap:round; stroke-linejoin:round; stroke-width:4; stroke-opacity:1; fill:none" points="301.869,1271.62 314.833,1263.9 434.699,1192.54 506.733,1149.66 567.638,1113.4 633.797,1074.01 694.79,1037.7 760.181,998.765 835.942,953.66 903.27,913.577 962.311,878.427 1026.68,840.104 1091.43,801.553 1163.03,758.93 1231.14,718.376 1301.97,676.209 1361.59,640.713 1434.38,597.377 1501.07,557.678 1562.65,521.013 1625.03,483.873 1694.95,442.249 1758.3,404.531 1830.84,361.346 1898,321.361 1964.22,281.94 2028.5,243.666 2094.41,204.43 2166.61,161.443 2271.5,98.9967 2293.02,86.1857 "/>
<path clip-path="url(#clip630)" d="M312.489 248.629 L575.981 248.629 L575.981 93.1086 L312.489 93.1086  Z" fill="#ffffff" fill-rule="evenodd" fill-opacity="1"/>
<polyline clip-path="url(#clip630)" style="stroke:#000000; stroke-linecap:round; stroke-linejoin:round; stroke-width:4; stroke-opacity:1; fill:none" points="312.489,248.629 575.981,248.629 575.981,93.1086 312.489,93.1086 312.489,248.629 "/>
<circle clip-path="url(#clip630)" cx="406.294" cy="144.949" r="23.04" fill="#009af9" fill-rule="evenodd" fill-opacity="1" stroke="#000000" stroke-opacity="1" stroke-width="5.12"/>
<path clip-path="url(#clip630)" d="M513.942 164.636 Q512.136 169.266 510.424 170.678 Q508.711 172.09 505.84 172.09 L502.437 172.09 L502.437 168.525 L504.937 168.525 Q506.697 168.525 507.669 167.692 Q508.641 166.858 509.822 163.756 L510.586 161.812 L500.099 136.303 L504.613 136.303 L512.715 156.581 L520.817 136.303 L525.331 136.303 L513.942 164.636 Z" fill="#000000" fill-rule="evenodd" fill-opacity="1" /><path clip-path="url(#clip630)" d="M532.622 158.293 L540.261 158.293 L540.261 131.928 L531.951 133.595 L531.951 129.335 L540.215 127.669 L544.891 127.669 L544.891 158.293 L552.53 158.293 L552.53 162.229 L532.622 162.229 L532.622 158.293 Z" fill="#000000" fill-rule="evenodd" fill-opacity="1" /><polyline clip-path="url(#clip630)" style="stroke:#e26f46; stroke-linecap:round; stroke-linejoin:round; stroke-width:4; stroke-opacity:1; fill:none" points="335.94,196.789 476.648,196.789 "/>
<path clip-path="url(#clip630)" d="M513.942 216.476 Q512.136 221.106 510.424 222.518 Q508.711 223.93 505.84 223.93 L502.437 223.93 L502.437 220.365 L504.937 220.365 Q506.697 220.365 507.669 219.532 Q508.641 218.698 509.822 215.596 L510.586 213.652 L500.099 188.143 L504.613 188.143 L512.715 208.421 L520.817 188.143 L525.331 188.143 L513.942 216.476 Z" fill="#000000" fill-rule="evenodd" fill-opacity="1" /><path clip-path="url(#clip630)" d="M535.84 210.133 L552.159 210.133 L552.159 214.069 L530.215 214.069 L530.215 210.133 Q532.877 207.379 537.46 202.749 Q542.067 198.096 543.247 196.754 Q545.493 194.231 546.372 192.495 Q547.275 190.735 547.275 189.046 Q547.275 186.291 545.331 184.555 Q543.409 182.819 540.308 182.819 Q538.109 182.819 535.655 183.583 Q533.224 184.347 530.447 185.897 L530.447 181.175 Q533.271 180.041 535.724 179.462 Q538.178 178.884 540.215 178.884 Q545.585 178.884 548.78 181.569 Q551.974 184.254 551.974 188.745 Q551.974 190.874 551.164 192.796 Q550.377 194.694 548.271 197.286 Q547.692 197.958 544.59 201.175 Q541.488 204.37 535.84 210.133 Z" fill="#000000" fill-rule="evenodd" fill-opacity="1" /></svg>
