<?xml version="1.0" encoding="utf-8"?>
<svg xmlns="http://www.w3.org/2000/svg" xmlns:xlink="http://www.w3.org/1999/xlink" width="600" height="600" viewBox="0 0 2400 2400">
<defs>
  <clipPath id="clip570">
    <rect x="0" y="0" width="2400" height="2400"/>
  </clipPath>
</defs>
<path clip-path="url(#clip570)" d="M0 2400 L2400 2400 L2400 0 L0 0  Z" fill="#ffffff" fill-rule="evenodd" fill-opacity="1"/>
<defs>
  <clipPath id="clip571">
    <rect x="480" y="240" width="1681" height="1681"/>
  </clipPath>
</defs>
<path clip-path="url(#clip570)" d="M272.955 2174.14 L2352.76 2174.14 L2352.76 153.712 L272.955 153.712  Z" fill="#ffffff" fill-rule="evenodd" fill-opacity="1"/>
<defs>
  <clipPath id="clip572">
    <rect x="272" y="153" width="2081" height="2021"/>
  </clipPath>
</defs>
<polyline clip-path="url(#clip572)" style="stroke:#000000; stroke-linecap:round; stroke-linejoin:round; stroke-width:2; stroke-opacity:0.1; fill:none" points="697.946,2174.14 697.946,153.712 "/>
<polyline clip-path="url(#clip572)" style="stroke:#000000; stroke-linecap:round; stroke-linejoin:round; stroke-width:2; stroke-opacity:0.1; fill:none" points="1153.93,2174.14 1153.93,153.712 "/>
<polyline clip-path="url(#clip572)" style="stroke:#000000; stroke-linecap:round; stroke-linejoin:round; stroke-width:2; stroke-opacity:0.1; fill:none" points="1609.92,2174.14 1609.92,153.712 "/>
<polyline clip-path="url(#clip572)" style="stroke:#000000; stroke-linecap:round; stroke-linejoin:round; stroke-width:2; stroke-opacity:0.1; fill:none" points="2065.9,2174.14 2065.9,153.712 "/>
<polyline clip-path="url(#clip570)" style="stroke:#000000; stroke-linecap:round; stroke-linejoin:round; stroke-width:4; stroke-opacity:1; fill:none" points="272.955,2174.14 2352.76,2174.14 "/>
<polyline clip-path="url(#clip570)" style="stroke:#000000; stroke-linecap:round; stroke-linejoin:round; stroke-width:4; stroke-opacity:1; fill:none" points="697.946,2174.14 697.946,2155.24 "/>
<polyline clip-path="url(#clip570)" style="stroke:#000000; stroke-linecap:round; stroke-linejoin:round; stroke-width:4; stroke-opacity:1; fill:none" points="1153.93,2174.14 1153.93,2155.24 "/>
<polyline clip-path="url(#clip570)" style="stroke:#000000; stroke-linecap:round; stroke-linejoin:round; stroke-width:4; stroke-opacity:1; fill:none" points="1609.92,2174.14 1609.92,2155.24 "/>
<polyline clip-path="url(#clip570)" style="stroke:#000000; stroke-linecap:round; stroke-linejoin:round; stroke-width:4; stroke-opacity:1; fill:none" points="2065.9,2174.14 2065.9,2155.24 "/>
<path clip-path="url(#clip570)" d="M650.018 2232.6 L657.657 2232.6 L657.657 2206.24 L649.347 2207.91 L649.347 2203.65 L657.611 2201.98 L662.287 2201.98 L662.287 2232.6 L669.926 2232.6 L669.926 2236.54 L650.018 2236.54 L650.018 2232.6 Z" fill="#000000" fill-rule="evenodd" fill-opacity="1" /><path clip-path="url(#clip570)" d="M693.537 2217.91 Q696.893 2218.62 698.768 2220.89 Q700.666 2223.16 700.666 2226.49 Q700.666 2231.61 697.148 2234.41 Q693.629 2237.21 687.148 2237.21 Q684.972 2237.21 682.657 2236.77 Q680.365 2236.35 677.912 2235.5 L677.912 2230.98 Q679.856 2232.12 682.171 2232.7 Q684.486 2233.28 687.009 2233.28 Q691.407 2233.28 693.699 2231.54 Q696.013 2229.8 696.013 2226.49 Q696.013 2223.44 693.861 2221.73 Q691.731 2219.99 687.912 2219.99 L683.884 2219.99 L683.884 2216.15 L688.097 2216.15 Q691.546 2216.15 693.374 2214.78 Q695.203 2213.39 695.203 2210.8 Q695.203 2208.14 693.305 2206.73 Q691.43 2205.29 687.912 2205.29 Q685.99 2205.29 683.791 2205.71 Q681.592 2206.12 678.953 2207 L678.953 2202.84 Q681.615 2202.1 683.93 2201.73 Q686.268 2201.35 688.328 2201.35 Q693.652 2201.35 696.754 2203.79 Q699.856 2206.19 699.856 2210.31 Q699.856 2213.18 698.212 2215.17 Q696.569 2217.14 693.537 2217.91 Z" fill="#000000" fill-rule="evenodd" fill-opacity="1" /><path clip-path="url(#clip570)" d="M709.532 2230.66 L714.416 2230.66 L714.416 2236.54 L709.532 2236.54 L709.532 2230.66 Z" fill="#000000" fill-rule="evenodd" fill-opacity="1" /><path clip-path="url(#clip570)" d="M734.601 2205.06 Q730.99 2205.06 729.161 2208.62 Q727.356 2212.16 727.356 2219.29 Q727.356 2226.4 729.161 2229.97 Q730.99 2233.51 734.601 2233.51 Q738.235 2233.51 740.041 2229.97 Q741.87 2226.4 741.87 2219.29 Q741.87 2212.16 740.041 2208.62 Q738.235 2205.06 734.601 2205.06 M734.601 2201.35 Q740.411 2201.35 743.467 2205.96 Q746.545 2210.54 746.545 2219.29 Q746.545 2228.02 743.467 2232.63 Q740.411 2237.21 734.601 2237.21 Q728.791 2237.21 725.712 2232.63 Q722.657 2228.02 722.657 2219.29 Q722.657 2210.54 725.712 2205.96 Q728.791 2201.35 734.601 2201.35 Z" fill="#000000" fill-rule="evenodd" fill-opacity="1" /><path clip-path="url(#clip570)" d="M1106.5 2232.6 L1114.14 2232.6 L1114.14 2206.24 L1105.83 2207.91 L1105.83 2203.65 L1114.09 2201.98 L1118.77 2201.98 L1118.77 2232.6 L1126.41 2232.6 L1126.41 2236.54 L1106.5 2236.54 L1106.5 2232.6 Z" fill="#000000" fill-rule="evenodd" fill-opacity="1" /><path clip-path="url(#clip570)" d="M1150.02 2217.91 Q1153.38 2218.62 1155.25 2220.89 Q1157.15 2223.16 1157.15 2226.49 Q1157.15 2231.61 1153.63 2234.41 Q1150.11 2237.21 1143.63 2237.21 Q1141.45 2237.21 1139.14 2236.77 Q1136.85 2236.35 1134.39 2235.5 L1134.39 2230.98 Q1136.34 2232.12 1138.65 2232.7 Q1140.97 2233.28 1143.49 2233.28 Q1147.89 2233.28 1150.18 2231.54 Q1152.5 2229.8 1152.5 2226.49 Q1152.5 2223.44 1150.34 2221.73 Q1148.21 2219.99 1144.39 2219.99 L1140.37 2219.99 L1140.37 2216.15 L1144.58 2216.15 Q1148.03 2216.15 1149.86 2214.78 Q1151.69 2213.39 1151.69 2210.8 Q1151.69 2208.14 1149.79 2206.73 Q1147.91 2205.29 1144.39 2205.29 Q1142.47 2205.29 1140.27 2205.71 Q1138.07 2206.12 1135.44 2207 L1135.44 2202.84 Q1138.1 2202.1 1140.41 2201.73 Q1142.75 2201.35 1144.81 2201.35 Q1150.13 2201.35 1153.24 2203.79 Q1156.34 2206.19 1156.34 2210.31 Q1156.34 2213.18 1154.7 2215.17 Q1153.05 2217.14 1150.02 2217.91 Z" fill="#000000" fill-rule="evenodd" fill-opacity="1" /><path clip-path="url(#clip570)" d="M1166.01 2230.66 L1170.9 2230.66 L1170.9 2236.54 L1166.01 2236.54 L1166.01 2230.66 Z" fill="#000000" fill-rule="evenodd" fill-opacity="1" /><path clip-path="url(#clip570)" d="M1181.13 2201.98 L1199.49 2201.98 L1199.49 2205.92 L1185.41 2205.92 L1185.41 2214.39 Q1186.43 2214.04 1187.45 2213.88 Q1188.47 2213.69 1189.49 2213.69 Q1195.27 2213.69 1198.65 2216.86 Q1202.03 2220.04 1202.03 2225.45 Q1202.03 2231.03 1198.56 2234.13 Q1195.09 2237.21 1188.77 2237.21 Q1186.59 2237.21 1184.32 2236.84 Q1182.08 2236.47 1179.67 2235.73 L1179.67 2231.03 Q1181.76 2232.16 1183.98 2232.72 Q1186.2 2233.28 1188.68 2233.28 Q1192.68 2233.28 1195.02 2231.17 Q1197.36 2229.06 1197.36 2225.45 Q1197.36 2221.84 1195.02 2219.73 Q1192.68 2217.63 1188.68 2217.63 Q1186.8 2217.63 1184.93 2218.04 Q1183.07 2218.46 1181.13 2219.34 L1181.13 2201.98 Z" fill="#000000" fill-rule="evenodd" fill-opacity="1" /><path clip-path="url(#clip570)" d="M1561.99 2232.6 L1569.63 2232.6 L1569.63 2206.24 L1561.32 2207.91 L1561.32 2203.65 L1569.58 2201.98 L1574.26 2201.98 L1574.26 2232.6 L1581.9 2232.6 L1581.9 2236.54 L1561.99 2236.54 L1561.99 2232.6 Z" fill="#000000" fill-rule="evenodd" fill-opacity="1" /><path clip-path="url(#clip570)" d="M1604.19 2206.05 L1592.38 2224.5 L1604.19 2224.5 L1604.19 2206.05 M1602.96 2201.98 L1608.84 2201.98 L1608.84 2224.5 L1613.77 2224.5 L1613.77 2228.39 L1608.84 2228.39 L1608.84 2236.54 L1604.19 2236.54 L1604.19 2228.39 L1588.59 2228.39 L1588.59 2223.88 L1602.96 2201.98 Z" fill="#000000" fill-rule="evenodd" fill-opacity="1" /><path clip-path="url(#clip570)" d="M1621.5 2230.66 L1626.39 2230.66 L1626.39 2236.54 L1621.5 2236.54 L1621.5 2230.66 Z" fill="#000000" fill-rule="evenodd" fill-opacity="1" /><path clip-path="url(#clip570)" d="M1646.57 2205.06 Q1642.96 2205.06 1641.13 2208.62 Q1639.33 2212.16 1639.33 2219.29 Q1639.33 2226.4 1641.13 2229.97 Q1642.96 2233.51 1646.57 2233.51 Q1650.21 2233.51 1652.01 2229.97 Q1653.84 2226.4 1653.84 2219.29 Q1653.84 2212.16 1652.01 2208.62 Q1650.21 2205.06 1646.57 2205.06 M1646.57 2201.35 Q1652.38 2201.35 1655.44 2205.96 Q1658.52 2210.54 1658.52 2219.29 Q1658.52 2228.02 1655.44 2232.63 Q1652.38 2237.21 1646.57 2237.21 Q1640.76 2237.21 1637.68 2232.63 Q1634.63 2228.02 1634.63 2219.29 Q1634.63 2210.54 1637.68 2205.96 Q1640.76 2201.35 1646.57 2201.35 Z" fill="#000000" fill-rule="evenodd" fill-opacity="1" /><path clip-path="url(#clip570)" d="M2018.47 2232.6 L2026.11 2232.6 L2026.11 2206.24 L2017.8 2207.91 L2017.8 2203.65 L2026.06 2201.98 L2030.74 2201.98 L2030.74 2232.6 L2038.38 2232.6 L2038.38 2236.54 L2018.47 2236.54 L2018.47 2232.6 Z" fill="#000000" fill-rule="evenodd" fill-opacity="1" /><path clip-path="url(#clip570)" d="M2060.67 2206.05 L2048.86 2224.5 L2060.67 2224.5 L2060.67 2206.05 M2059.44 2201.98 L2065.32 2201.98 L2065.32 2224.5 L2070.25 2224.5 L2070.25 2228.39 L2065.32 2228.39 L2065.32 2236.54 L2060.67 2236.54 L2060.67 2228.39 L2045.07 2228.39 L2045.07 2223.88 L2059.44 2201.98 Z" fill="#000000" fill-rule="evenodd" fill-opacity="1" /><path clip-path="url(#clip570)" d="M2077.98 2230.66 L2082.87 2230.66 L2082.87 2236.54 L2077.98 2236.54 L2077.98 2230.66 Z" fill="#000000" fill-rule="evenodd" fill-opacity="1" /><path clip-path="url(#clip570)" d="M2093.1 2201.98 L2111.46 2201.98 L2111.46 2205.92 L2097.38 2205.92 L2097.38 2214.39 Q2098.4 2214.04 2099.42 2213.88 Q2100.44 2213.69 2101.46 2213.69 Q2107.24 2213.69 2110.62 2216.86 Q2114 2220.04 2114 2225.45 Q2114 2231.03 2110.53 2234.13 Q2107.06 2237.21 2100.74 2237.21 Q2098.56 2237.21 2096.29 2236.84 Q2094.05 2236.47 2091.64 2235.73 L2091.64 2231.03 Q2093.73 2232.16 2095.95 2232.72 Q2098.17 2233.28 2100.65 2233.28 Q2104.65 2233.28 2106.99 2231.17 Q2109.33 2229.06 2109.33 2225.45 Q2109.33 2221.84 2106.99 2219.73 Q2104.65 2217.63 2100.65 2217.63 Q2098.77 2217.63 2096.9 2218.04 Q2095.04 2218.46 2093.1 2219.34 L2093.1 2201.98 Z" fill="#000000" fill-rule="evenodd" fill-opacity="1" /><path clip-path="url(#clip570)" d="M1219.76 2301.08 Q1212.66 2301.08 1209.92 2302.71 Q1207.18 2304.33 1207.18 2308.25 Q1207.18 2311.36 1209.22 2313.21 Q1211.29 2315.03 1214.82 2315.03 Q1219.69 2315.03 1222.62 2311.59 Q1225.58 2308.12 1225.58 2302.39 L1225.58 2301.08 L1219.76 2301.08 M1231.44 2298.67 L1231.44 2319 L1225.58 2319 L1225.58 2313.59 Q1223.58 2316.84 1220.58 2318.4 Q1217.59 2319.93 1213.26 2319.93 Q1207.79 2319.93 1204.54 2316.87 Q1201.33 2313.78 1201.33 2308.63 Q1201.33 2302.61 1205.34 2299.56 Q1209.38 2296.5 1217.37 2296.5 L1225.58 2296.5 L1225.58 2295.93 Q1225.58 2291.89 1222.91 2289.69 Q1220.27 2287.46 1215.46 2287.46 Q1212.4 2287.46 1209.51 2288.19 Q1206.61 2288.93 1203.94 2290.39 L1203.94 2284.98 Q1207.15 2283.74 1210.18 2283.13 Q1213.2 2282.5 1216.06 2282.5 Q1223.8 2282.5 1227.62 2286.51 Q1231.44 2290.52 1231.44 2298.67 Z" fill="#000000" fill-rule="evenodd" fill-opacity="1" /><path clip-path="url(#clip570)" d="M1243.5 2269.48 L1249.36 2269.48 L1249.36 2319 L1243.5 2319 L1243.5 2269.48 Z" fill="#000000" fill-rule="evenodd" fill-opacity="1" /><path clip-path="url(#clip570)" d="M1287.27 2284.72 L1287.27 2290.2 Q1284.78 2288.83 1282.27 2288.16 Q1279.79 2287.46 1277.24 2287.46 Q1271.54 2287.46 1268.39 2291.09 Q1265.24 2294.69 1265.24 2301.21 Q1265.24 2307.74 1268.39 2311.36 Q1271.54 2314.96 1277.24 2314.96 Q1279.79 2314.96 1282.27 2314.29 Q1284.78 2313.59 1287.27 2312.22 L1287.27 2317.64 Q1284.81 2318.78 1282.17 2319.35 Q1279.56 2319.93 1276.6 2319.93 Q1268.55 2319.93 1263.81 2314.87 Q1259.07 2309.81 1259.07 2301.21 Q1259.07 2292.49 1263.84 2287.49 Q1268.65 2282.5 1276.98 2282.5 Q1279.69 2282.5 1282.27 2283.07 Q1284.85 2283.61 1287.27 2284.72 Z" fill="#000000" fill-rule="evenodd" fill-opacity="1" /><path clip-path="url(#clip570)" d="M1311.26 2287.46 Q1306.55 2287.46 1303.82 2291.15 Q1301.08 2294.81 1301.08 2301.21 Q1301.08 2307.61 1303.78 2311.3 Q1306.52 2314.96 1311.26 2314.96 Q1315.94 2314.96 1318.68 2311.27 Q1321.42 2307.58 1321.42 2301.21 Q1321.42 2294.88 1318.68 2291.19 Q1315.94 2287.46 1311.26 2287.46 M1311.26 2282.5 Q1318.9 2282.5 1323.26 2287.46 Q1327.62 2292.43 1327.62 2301.21 Q1327.62 2309.96 1323.26 2314.96 Q1318.9 2319.93 1311.26 2319.93 Q1303.59 2319.93 1299.23 2314.96 Q1294.9 2309.96 1294.9 2301.21 Q1294.9 2292.43 1299.23 2287.46 Q1303.59 2282.5 1311.26 2282.5 Z" fill="#000000" fill-rule="evenodd" fill-opacity="1" /><path clip-path="url(#clip570)" d="M1366.96 2297.49 L1366.96 2319 L1361.11 2319 L1361.11 2297.68 Q1361.11 2292.62 1359.13 2290.1 Q1357.16 2287.59 1353.21 2287.59 Q1348.47 2287.59 1345.73 2290.61 Q1343 2293.64 1343 2298.86 L1343 2319 L1337.11 2319 L1337.11 2269.48 L1343 2269.48 L1343 2288.89 Q1345.1 2285.68 1347.93 2284.09 Q1350.79 2282.5 1354.52 2282.5 Q1360.66 2282.5 1363.81 2286.32 Q1366.96 2290.1 1366.96 2297.49 Z" fill="#000000" fill-rule="evenodd" fill-opacity="1" /><path clip-path="url(#clip570)" d="M1392.46 2287.46 Q1387.75 2287.46 1385.01 2291.15 Q1382.27 2294.81 1382.27 2301.21 Q1382.27 2307.61 1384.98 2311.3 Q1387.72 2314.96 1392.46 2314.96 Q1397.14 2314.96 1399.87 2311.27 Q1402.61 2307.58 1402.61 2301.21 Q1402.61 2294.88 1399.87 2291.19 Q1397.14 2287.46 1392.46 2287.46 M1392.46 2282.5 Q1400.1 2282.5 1404.46 2287.46 Q1408.82 2292.43 1408.82 2301.21 Q1408.82 2309.96 1404.46 2314.96 Q1400.1 2319.93 1392.46 2319.93 Q1384.79 2319.93 1380.43 2314.96 Q1376.1 2309.96 1376.1 2301.21 Q1376.1 2292.43 1380.43 2287.46 Q1384.79 2282.5 1392.46 2282.5 Z" fill="#000000" fill-rule="evenodd" fill-opacity="1" /><path clip-path="url(#clip570)" d="M1418.53 2269.48 L1424.38 2269.48 L1424.38 2319 L1418.53 2319 L1418.53 2269.48 Z" fill="#000000" fill-rule="evenodd" fill-opacity="1" /><polyline clip-path="url(#clip572)" style="stroke:#000000; stroke-linecap:round; stroke-linejoin:round; stroke-width:2; stroke-opacity:0.1; fill:none" points="272.955,1986.59 2352.76,1986.59 "/>
<polyline clip-path="url(#clip572)" style="stroke:#000000; stroke-linecap:round; stroke-linejoin:round; stroke-width:2; stroke-opacity:0.1; fill:none" points="272.955,1520.98 2352.76,1520.98 "/>
<polyline clip-path="url(#clip572)" style="stroke:#000000; stroke-linecap:round; stroke-linejoin:round; stroke-width:2; stroke-opacity:0.1; fill:none" points="272.955,1055.38 2352.76,1055.38 "/>
<polyline clip-path="url(#clip572)" style="stroke:#000000; stroke-linecap:round; stroke-linejoin:round; stroke-width:2; stroke-opacity:0.1; fill:none" points="272.955,589.77 2352.76,589.77 "/>
<polyline clip-path="url(#clip570)" style="stroke:#000000; stroke-linecap:round; stroke-linejoin:round; stroke-width:4; stroke-opacity:1; fill:none" points="272.955,2174.14 272.955,153.712 "/>
<polyline clip-path="url(#clip570)" style="stroke:#000000; stroke-linecap:round; stroke-linejoin:round; stroke-width:4; stroke-opacity:1; fill:none" points="272.955,1986.59 291.852,1986.59 "/>
<polyline clip-path="url(#clip570)" style="stroke:#000000; stroke-linecap:round; stroke-linejoin:round; stroke-width:4; stroke-opacity:1; fill:none" points="272.955,1520.98 291.852,1520.98 "/>
<polyline clip-path="url(#clip570)" style="stroke:#000000; stroke-linecap:round; stroke-linejoin:round; stroke-width:4; stroke-opacity:1; fill:none" points="272.955,1055.38 291.852,1055.38 "/>
<polyline clip-path="url(#clip570)" style="stroke:#000000; stroke-linecap:round; stroke-linejoin:round; stroke-width:4; stroke-opacity:1; fill:none" points="272.955,589.77 291.852,589.77 "/>
<path clip-path="url(#clip570)" d="M140.428 1999.93 L148.066 1999.93 L148.066 1973.57 L139.756 1975.23 L139.756 1970.97 L148.02 1969.31 L152.696 1969.31 L152.696 1999.93 L160.335 1999.93 L160.335 2003.87 L140.428 2003.87 L140.428 1999.93 Z" fill="#000000" fill-rule="evenodd" fill-opacity="1" /><path clip-path="url(#clip570)" d="M169.779 1997.99 L174.663 1997.99 L174.663 2003.87 L169.779 2003.87 L169.779 1997.99 Z" fill="#000000" fill-rule="evenodd" fill-opacity="1" /><path clip-path="url(#clip570)" d="M184.895 1969.31 L203.251 1969.31 L203.251 1973.24 L189.177 1973.24 L189.177 1981.72 Q190.196 1981.37 191.214 1981.21 Q192.233 1981.02 193.251 1981.02 Q199.038 1981.02 202.418 1984.19 Q205.798 1987.36 205.798 1992.78 Q205.798 1998.36 202.325 2001.46 Q198.853 2004.54 192.534 2004.54 Q190.358 2004.54 188.089 2004.17 Q185.844 2003.8 183.437 2003.06 L183.437 1998.36 Q185.52 1999.49 187.742 2000.05 Q189.964 2000.6 192.441 2000.6 Q196.446 2000.6 198.784 1998.5 Q201.122 1996.39 201.122 1992.78 Q201.122 1989.17 198.784 1987.06 Q196.446 1984.96 192.441 1984.96 Q190.566 1984.96 188.691 1985.37 Q186.839 1985.79 184.895 1986.67 L184.895 1969.31 Z" fill="#000000" fill-rule="evenodd" fill-opacity="1" /><path clip-path="url(#clip570)" d="M225.01 1972.39 Q221.399 1972.39 219.571 1975.95 Q217.765 1979.49 217.765 1986.62 Q217.765 1993.73 219.571 1997.29 Q221.399 2000.84 225.01 2000.84 Q228.645 2000.84 230.45 1997.29 Q232.279 1993.73 232.279 1986.62 Q232.279 1979.49 230.45 1975.95 Q228.645 1972.39 225.01 1972.39 M225.01 1968.68 Q230.821 1968.68 233.876 1973.29 Q236.955 1977.87 236.955 1986.62 Q236.955 1995.35 233.876 1999.96 Q230.821 2004.54 225.01 2004.54 Q219.2 2004.54 216.122 1999.96 Q213.066 1995.35 213.066 1986.62 Q213.066 1977.87 216.122 1973.29 Q219.2 1968.68 225.01 1968.68 Z" fill="#000000" fill-rule="evenodd" fill-opacity="1" /><path clip-path="url(#clip570)" d="M141.423 1534.33 L149.062 1534.33 L149.062 1507.96 L140.752 1509.63 L140.752 1505.37 L149.015 1503.7 L153.691 1503.7 L153.691 1534.33 L161.33 1534.33 L161.33 1538.26 L141.423 1538.26 L141.423 1534.33 Z" fill="#000000" fill-rule="evenodd" fill-opacity="1" /><path clip-path="url(#clip570)" d="M170.775 1532.38 L175.659 1532.38 L175.659 1538.26 L170.775 1538.26 L170.775 1532.38 Z" fill="#000000" fill-rule="evenodd" fill-opacity="1" /><path clip-path="url(#clip570)" d="M184.663 1503.7 L206.886 1503.7 L206.886 1505.69 L194.339 1538.26 L189.455 1538.26 L201.261 1507.64 L184.663 1507.64 L184.663 1503.7 Z" fill="#000000" fill-rule="evenodd" fill-opacity="1" /><path clip-path="url(#clip570)" d="M216.052 1503.7 L234.409 1503.7 L234.409 1507.64 L220.335 1507.64 L220.335 1516.11 Q221.353 1515.76 222.372 1515.6 Q223.39 1515.41 224.409 1515.41 Q230.196 1515.41 233.575 1518.59 Q236.955 1521.76 236.955 1527.17 Q236.955 1532.75 233.483 1535.85 Q230.01 1538.93 223.691 1538.93 Q221.515 1538.93 219.247 1538.56 Q217.001 1538.19 214.594 1537.45 L214.594 1532.75 Q216.677 1533.89 218.899 1534.44 Q221.122 1535 223.598 1535 Q227.603 1535 229.941 1532.89 Q232.279 1530.79 232.279 1527.17 Q232.279 1523.56 229.941 1521.46 Q227.603 1519.35 223.598 1519.35 Q221.723 1519.35 219.848 1519.77 Q217.997 1520.18 216.052 1521.06 L216.052 1503.7 Z" fill="#000000" fill-rule="evenodd" fill-opacity="1" /><path clip-path="url(#clip570)" d="M143.645 1068.72 L159.964 1068.72 L159.964 1072.66 L138.02 1072.66 L138.02 1068.72 Q140.682 1065.97 145.265 1061.34 Q149.872 1056.68 151.052 1055.34 Q153.298 1052.82 154.177 1051.08 Q155.08 1049.32 155.08 1047.63 Q155.08 1044.88 153.136 1043.14 Q151.215 1041.41 148.113 1041.41 Q145.914 1041.41 143.46 1042.17 Q141.029 1042.93 138.252 1044.48 L138.252 1039.76 Q141.076 1038.63 143.529 1038.05 Q145.983 1037.47 148.02 1037.47 Q153.39 1037.47 156.585 1040.16 Q159.779 1042.84 159.779 1047.33 Q159.779 1049.46 158.969 1051.38 Q158.182 1053.28 156.076 1055.87 Q155.497 1056.54 152.395 1059.76 Q149.293 1062.96 143.645 1068.72 Z" fill="#000000" fill-rule="evenodd" fill-opacity="1" /><path clip-path="url(#clip570)" d="M169.779 1066.78 L174.663 1066.78 L174.663 1072.66 L169.779 1072.66 L169.779 1066.78 Z" fill="#000000" fill-rule="evenodd" fill-opacity="1" /><path clip-path="url(#clip570)" d="M194.849 1041.17 Q191.237 1041.17 189.409 1044.74 Q187.603 1048.28 187.603 1055.41 Q187.603 1062.52 189.409 1066.08 Q191.237 1069.62 194.849 1069.62 Q198.483 1069.62 200.288 1066.08 Q202.117 1062.52 202.117 1055.41 Q202.117 1048.28 200.288 1044.74 Q198.483 1041.17 194.849 1041.17 M194.849 1037.47 Q200.659 1037.47 203.714 1042.08 Q206.793 1046.66 206.793 1055.41 Q206.793 1064.14 203.714 1068.74 Q200.659 1073.33 194.849 1073.33 Q189.038 1073.33 185.96 1068.74 Q182.904 1064.14 182.904 1055.41 Q182.904 1046.66 185.96 1042.08 Q189.038 1037.47 194.849 1037.47 Z" fill="#000000" fill-rule="evenodd" fill-opacity="1" /><path clip-path="url(#clip570)" d="M225.01 1041.17 Q221.399 1041.17 219.571 1044.74 Q217.765 1048.28 217.765 1055.41 Q217.765 1062.52 219.571 1066.08 Q221.399 1069.62 225.01 1069.62 Q228.645 1069.62 230.45 1066.08 Q232.279 1062.52 232.279 1055.41 Q232.279 1048.28 230.45 1044.74 Q228.645 1041.17 225.01 1041.17 M225.01 1037.47 Q230.821 1037.47 233.876 1042.08 Q236.955 1046.66 236.955 1055.41 Q236.955 1064.14 233.876 1068.74 Q230.821 1073.33 225.01 1073.33 Q219.2 1073.33 216.122 1068.74 Q213.066 1064.14 213.066 1055.41 Q213.066 1046.66 216.122 1042.08 Q219.2 1037.47 225.01 1037.47 Z" fill="#000000" fill-rule="evenodd" fill-opacity="1" /><path clip-path="url(#clip570)" d="M144.64 603.114 L160.96 603.114 L160.96 607.05 L139.016 607.05 L139.016 603.114 Q141.678 600.36 146.261 595.73 Q150.867 591.078 152.048 589.735 Q154.293 587.212 155.173 585.476 Q156.076 583.716 156.076 582.027 Q156.076 579.272 154.131 577.536 Q152.21 575.8 149.108 575.8 Q146.909 575.8 144.455 576.564 Q142.025 577.328 139.247 578.879 L139.247 574.156 Q142.071 573.022 144.525 572.443 Q146.978 571.865 149.015 571.865 Q154.386 571.865 157.58 574.55 Q160.775 577.235 160.775 581.726 Q160.775 583.855 159.964 585.777 Q159.177 587.675 157.071 590.267 Q156.492 590.939 153.39 594.156 Q150.289 597.351 144.64 603.114 Z" fill="#000000" fill-rule="evenodd" fill-opacity="1" /><path clip-path="url(#clip570)" d="M170.775 601.17 L175.659 601.17 L175.659 607.05 L170.775 607.05 L170.775 601.17 Z" fill="#000000" fill-rule="evenodd" fill-opacity="1" /><path clip-path="url(#clip570)" d="M189.872 603.114 L206.191 603.114 L206.191 607.05 L184.247 607.05 L184.247 603.114 Q186.909 600.36 191.492 595.73 Q196.099 591.078 197.279 589.735 Q199.524 587.212 200.404 585.476 Q201.307 583.716 201.307 582.027 Q201.307 579.272 199.362 577.536 Q197.441 575.8 194.339 575.8 Q192.14 575.8 189.687 576.564 Q187.256 577.328 184.478 578.879 L184.478 574.156 Q187.302 573.022 189.756 572.443 Q192.21 571.865 194.247 571.865 Q199.617 571.865 202.811 574.55 Q206.006 577.235 206.006 581.726 Q206.006 583.855 205.196 585.777 Q204.409 587.675 202.302 590.267 Q201.724 590.939 198.622 594.156 Q195.52 597.351 189.872 603.114 Z" fill="#000000" fill-rule="evenodd" fill-opacity="1" /><path clip-path="url(#clip570)" d="M216.052 572.49 L234.409 572.49 L234.409 576.425 L220.335 576.425 L220.335 584.897 Q221.353 584.55 222.372 584.388 Q223.39 584.203 224.409 584.203 Q230.196 584.203 233.575 587.374 Q236.955 590.545 236.955 595.962 Q236.955 601.54 233.483 604.642 Q230.01 607.721 223.691 607.721 Q221.515 607.721 219.247 607.351 Q217.001 606.98 214.594 606.239 L214.594 601.54 Q216.677 602.675 218.899 603.23 Q221.122 603.786 223.598 603.786 Q227.603 603.786 229.941 601.679 Q232.279 599.573 232.279 595.962 Q232.279 592.351 229.941 590.244 Q227.603 588.138 223.598 588.138 Q221.723 588.138 219.848 588.554 Q217.997 588.971 216.052 589.851 L216.052 572.49 Z" fill="#000000" fill-rule="evenodd" fill-opacity="1" /><path clip-path="url(#clip570)" d="M58.9593 1295.78 Q55.0126 1293.58 53.1347 1290.52 Q51.2568 1287.47 51.2568 1283.33 Q51.2568 1277.76 55.1717 1274.74 Q59.0548 1271.71 66.2481 1271.71 L87.7642 1271.71 L87.7642 1277.6 L66.439 1277.6 Q61.3146 1277.6 58.832 1279.42 Q56.3494 1281.23 56.3494 1284.95 Q56.3494 1289.51 59.3731 1292.15 Q62.3968 1294.79 67.6167 1294.79 L87.7642 1294.79 L87.7642 1300.68 L66.439 1300.68 Q61.2828 1300.68 58.832 1302.49 Q56.3494 1304.31 56.3494 1308.09 Q56.3494 1312.58 59.4049 1315.22 Q62.4286 1317.86 67.6167 1317.86 L87.7642 1317.86 L87.7642 1323.75 L52.1162 1323.75 L52.1162 1317.86 L57.6544 1317.86 Q54.376 1315.86 52.8164 1313.06 Q51.2568 1310.26 51.2568 1306.41 Q51.2568 1302.52 53.2302 1299.82 Q55.2036 1297.08 58.9593 1295.78 Z" fill="#000000" fill-rule="evenodd" fill-opacity="1" /><path clip-path="url(#clip570)" d="M69.8447 1243.83 Q69.8447 1250.93 71.4679 1253.67 Q73.0912 1256.4 77.0061 1256.4 Q80.1253 1256.4 81.9714 1254.37 Q83.7856 1252.3 83.7856 1248.76 Q83.7856 1243.9 80.3481 1240.97 Q76.8788 1238.01 71.1497 1238.01 L69.8447 1238.01 L69.8447 1243.83 M67.4257 1232.15 L87.7642 1232.15 L87.7642 1238.01 L82.3533 1238.01 Q85.5998 1240.01 87.1594 1243 Q88.6872 1246 88.6872 1250.32 Q88.6872 1255.8 85.6316 1259.05 Q82.5443 1262.26 77.3881 1262.26 Q71.3725 1262.26 68.3169 1258.25 Q65.2614 1254.21 65.2614 1246.22 L65.2614 1238.01 L64.6885 1238.01 Q60.6462 1238.01 58.4501 1240.68 Q56.2221 1243.32 56.2221 1248.13 Q56.2221 1251.18 56.9541 1254.08 Q57.6862 1256.98 59.1503 1259.65 L53.7395 1259.65 Q52.4981 1256.44 51.8934 1253.41 Q51.2568 1250.39 51.2568 1247.52 Q51.2568 1239.79 55.2672 1235.97 Q59.2776 1232.15 67.4257 1232.15 Z" fill="#000000" fill-rule="evenodd" fill-opacity="1" /><path clip-path="url(#clip570)" d="M38.239 1220.09 L38.239 1214.23 L87.7642 1214.23 L87.7642 1220.09 L38.239 1220.09 Z" fill="#000000" fill-rule="evenodd" fill-opacity="1" /><path clip-path="url(#clip570)" d="M52.1162 1201.98 L52.1162 1196.12 L87.7642 1196.12 L87.7642 1201.98 L52.1162 1201.98 M38.239 1201.98 L38.239 1196.12 L45.655 1196.12 L45.655 1201.98 L38.239 1201.98 Z" fill="#000000" fill-rule="evenodd" fill-opacity="1" /><path clip-path="url(#clip570)" d="M53.4848 1158.21 L58.9593 1158.21 Q57.5907 1160.7 56.9223 1163.21 Q56.2221 1165.69 56.2221 1168.24 Q56.2221 1173.94 59.8505 1177.09 Q63.4472 1180.24 69.972 1180.24 Q76.4969 1180.24 80.1253 1177.09 Q83.7219 1173.94 83.7219 1168.24 Q83.7219 1165.69 83.0535 1163.21 Q82.3533 1160.7 80.9847 1158.21 L86.3955 1158.21 Q87.5414 1160.66 88.1143 1163.31 Q88.6872 1165.92 88.6872 1168.88 Q88.6872 1176.93 83.6264 1181.67 Q78.5657 1186.41 69.972 1186.41 Q61.251 1186.41 56.2539 1181.64 Q51.2568 1176.83 51.2568 1168.49 Q51.2568 1165.79 51.8297 1163.21 Q52.3708 1160.63 53.4848 1158.21 Z" fill="#000000" fill-rule="evenodd" fill-opacity="1" /><path clip-path="url(#clip570)" d="M69.8447 1111.11 Q69.8447 1118.2 71.4679 1120.94 Q73.0912 1123.68 77.0061 1123.68 Q80.1253 1123.68 81.9714 1121.64 Q83.7856 1119.57 83.7856 1116.04 Q83.7856 1111.17 80.3481 1108.24 Q76.8788 1105.28 71.1497 1105.28 L69.8447 1105.28 L69.8447 1111.11 M67.4257 1099.43 L87.7642 1099.43 L87.7642 1105.28 L82.3533 1105.28 Q85.5998 1107.29 87.1594 1110.28 Q88.6872 1113.27 88.6872 1117.6 Q88.6872 1123.07 85.6316 1126.32 Q82.5443 1129.54 77.3881 1129.54 Q71.3725 1129.54 68.3169 1125.52 Q65.2614 1121.48 65.2614 1113.49 L65.2614 1105.28 L64.6885 1105.28 Q60.6462 1105.28 58.4501 1107.96 Q56.2221 1110.6 56.2221 1115.4 Q56.2221 1118.46 56.9541 1121.36 Q57.6862 1124.25 59.1503 1126.93 L53.7395 1126.93 Q52.4981 1123.71 51.8934 1120.69 Q51.2568 1117.66 51.2568 1114.8 Q51.2568 1107.06 55.2672 1103.24 Q59.2776 1099.43 67.4257 1099.43 Z" fill="#000000" fill-rule="evenodd" fill-opacity="1" /><path clip-path="url(#clip570)" d="M53.4848 1061.71 L58.9593 1061.71 Q57.5907 1064.19 56.9223 1066.71 Q56.2221 1069.19 56.2221 1071.73 Q56.2221 1077.43 59.8505 1080.58 Q63.4472 1083.73 69.972 1083.73 Q76.4969 1083.73 80.1253 1080.58 Q83.7219 1077.43 83.7219 1071.73 Q83.7219 1069.19 83.0535 1066.71 Q82.3533 1064.19 80.9847 1061.71 L86.3955 1061.71 Q87.5414 1064.16 88.1143 1066.8 Q88.6872 1069.41 88.6872 1072.37 Q88.6872 1080.42 83.6264 1085.17 Q78.5657 1089.91 69.972 1089.91 Q61.251 1089.91 56.2539 1085.13 Q51.2568 1080.33 51.2568 1071.99 Q51.2568 1069.28 51.8297 1066.71 Q52.3708 1064.13 53.4848 1061.71 Z" fill="#000000" fill-rule="evenodd" fill-opacity="1" /><path clip-path="url(#clip570)" d="M52.1162 1051.52 L52.1162 1045.67 L87.7642 1045.67 L87.7642 1051.52 L52.1162 1051.52 M38.239 1051.52 L38.239 1045.67 L45.655 1045.67 L45.655 1051.52 L38.239 1051.52 Z" fill="#000000" fill-rule="evenodd" fill-opacity="1" /><path clip-path="url(#clip570)" d="M57.5271 1009.96 L38.239 1009.96 L38.239 1004.1 L87.7642 1004.1 L87.7642 1009.96 L82.417 1009.96 Q85.5998 1011.8 87.1594 1014.63 Q88.6872 1017.44 88.6872 1021.38 Q88.6872 1027.84 83.531 1031.92 Q78.3747 1035.96 69.972 1035.96 Q61.5693 1035.96 56.4131 1031.92 Q51.2568 1027.84 51.2568 1021.38 Q51.2568 1017.44 52.8164 1014.63 Q54.3442 1011.8 57.5271 1009.96 M69.972 1029.91 Q76.4332 1029.91 80.1253 1027.27 Q83.7856 1024.6 83.7856 1019.95 Q83.7856 1015.3 80.1253 1012.63 Q76.4332 1009.96 69.972 1009.96 Q63.5108 1009.96 59.8505 1012.63 Q56.1584 1015.3 56.1584 1019.95 Q56.1584 1024.6 59.8505 1027.27 Q63.5108 1029.91 69.972 1029.91 Z" fill="#000000" fill-rule="evenodd" fill-opacity="1" /><path clip-path="url(#clip570)" d="M989.998 12.096 L998.262 12.096 L1010.98 63.2184 L1023.66 12.096 L1032.86 12.096 L1045.58 63.2184 L1058.26 12.096 L1066.56 12.096 L1051.37 72.576 L1041.08 72.576 L1028.32 20.0763 L1015.44 72.576 L1005.15 72.576 L989.998 12.096 Z" fill="#000000" fill-rule="evenodd" fill-opacity="1" /><path clip-path="url(#clip570)" d="M1075.27 27.2059 L1082.72 27.2059 L1082.72 72.576 L1075.27 72.576 L1075.27 27.2059 M1075.27 9.54393 L1082.72 9.54393 L1082.72 18.9825 L1075.27 18.9825 L1075.27 9.54393 Z" fill="#000000" fill-rule="evenodd" fill-opacity="1" /><path clip-path="url(#clip570)" d="M1136.03 45.1919 L1136.03 72.576 L1128.58 72.576 L1128.58 45.4349 Q1128.58 38.994 1126.07 35.7938 Q1123.56 32.5936 1118.53 32.5936 Q1112.5 32.5936 1109.01 36.4419 Q1105.53 40.2903 1105.53 46.9338 L1105.53 72.576 L1098.04 72.576 L1098.04 27.2059 L1105.53 27.2059 L1105.53 34.2544 Q1108.2 30.163 1111.81 28.1376 Q1115.45 26.1121 1120.19 26.1121 Q1128.01 26.1121 1132.02 30.9732 Q1136.03 35.7938 1136.03 45.1919 Z" fill="#000000" fill-rule="evenodd" fill-opacity="1" /><path clip-path="url(#clip570)" d="M1189.71 48.0275 L1189.71 51.6733 L1155.44 51.6733 Q1155.92 59.3701 1160.06 63.421 Q1164.23 67.4314 1171.64 67.4314 Q1175.93 67.4314 1179.95 66.3781 Q1184 65.3249 1187.97 63.2184 L1187.97 70.267 Q1183.96 71.9684 1179.74 72.8596 Q1175.53 73.7508 1171.2 73.7508 Q1160.34 73.7508 1153.98 67.4314 Q1147.66 61.1119 1147.66 50.3365 Q1147.66 39.1965 1153.65 32.6746 Q1159.69 26.1121 1169.9 26.1121 Q1179.05 26.1121 1184.36 32.0264 Q1189.71 37.9003 1189.71 48.0275 M1182.25 45.84 Q1182.17 39.7232 1178.81 36.0774 Q1175.49 32.4315 1169.98 32.4315 Q1163.74 32.4315 1159.97 35.9558 Q1156.25 39.4801 1155.68 45.8805 L1182.25 45.84 Z" fill="#000000" fill-rule="evenodd" fill-opacity="1" /><path clip-path="url(#clip570)" d="M1273.93 16.7545 L1273.93 25.383 Q1269.79 21.5346 1265.1 19.6307 Q1260.44 17.7268 1255.17 17.7268 Q1244.8 17.7268 1239.29 24.0867 Q1233.78 30.4061 1233.78 42.3968 Q1233.78 54.3469 1239.29 60.7069 Q1244.8 67.0263 1255.17 67.0263 Q1260.44 67.0263 1265.1 65.1223 Q1269.79 63.2184 1273.93 59.3701 L1273.93 67.9175 Q1269.63 70.8341 1264.81 72.2924 Q1260.03 73.7508 1254.68 73.7508 Q1240.95 73.7508 1233.05 65.3654 Q1225.15 56.9395 1225.15 42.3968 Q1225.15 27.8135 1233.05 19.4281 Q1240.95 11.0023 1254.68 11.0023 Q1260.11 11.0023 1264.89 12.4606 Q1269.71 13.8784 1273.93 16.7545 Z" fill="#000000" fill-rule="evenodd" fill-opacity="1" /><path clip-path="url(#clip570)" d="M1286.24 9.54393 L1293.69 9.54393 L1293.69 72.576 L1286.24 72.576 L1286.24 9.54393 Z" fill="#000000" fill-rule="evenodd" fill-opacity="1" /><path clip-path="url(#clip570)" d="M1308.52 54.671 L1308.52 27.2059 L1315.97 27.2059 L1315.97 54.3874 Q1315.97 60.8284 1318.49 64.0691 Q1321 67.2693 1326.02 67.2693 Q1332.06 67.2693 1335.54 63.421 Q1339.06 59.5726 1339.06 52.9291 L1339.06 27.2059 L1346.52 27.2059 L1346.52 72.576 L1339.06 72.576 L1339.06 65.6084 Q1336.35 69.7404 1332.75 71.7658 Q1329.18 73.7508 1324.44 73.7508 Q1316.62 73.7508 1312.57 68.8897 Q1308.52 64.0286 1308.52 54.671 M1327.28 26.1121 L1327.28 26.1121 Z" fill="#000000" fill-rule="evenodd" fill-opacity="1" /><path clip-path="url(#clip570)" d="M1390.79 28.5427 L1390.79 35.5912 Q1387.64 33.9709 1384.23 33.1607 Q1380.83 32.3505 1377.18 32.3505 Q1371.63 32.3505 1368.84 34.0519 Q1366.08 35.7533 1366.08 39.156 Q1366.08 41.7486 1368.07 43.2475 Q1370.05 44.7058 1376.05 46.0426 L1378.6 46.6097 Q1386.54 48.3111 1389.86 51.4303 Q1393.23 54.509 1393.23 60.0587 Q1393.23 66.3781 1388.2 70.0644 Q1383.22 73.7508 1374.47 73.7508 Q1370.82 73.7508 1366.85 73.0216 Q1362.92 72.3329 1358.55 70.9151 L1358.55 63.2184 Q1362.68 65.3654 1366.69 66.4591 Q1370.7 67.5124 1374.63 67.5124 Q1379.9 67.5124 1382.73 65.73 Q1385.57 63.9071 1385.57 60.6258 Q1385.57 57.5877 1383.5 55.9673 Q1381.48 54.3469 1374.55 52.8481 L1371.96 52.2405 Q1365.03 50.7821 1361.95 47.7845 Q1358.87 44.7463 1358.87 39.4801 Q1358.87 33.0797 1363.41 29.5959 Q1367.95 26.1121 1376.29 26.1121 Q1380.42 26.1121 1384.07 26.7198 Q1387.72 27.3274 1390.79 28.5427 Z" fill="#000000" fill-rule="evenodd" fill-opacity="1" /><path clip-path="url(#clip570)" d="M1412.47 14.324 L1412.47 27.2059 L1427.82 27.2059 L1427.82 32.9987 L1412.47 32.9987 L1412.47 57.6282 Q1412.47 63.1779 1413.97 64.7578 Q1415.51 66.3376 1420.16 66.3376 L1427.82 66.3376 L1427.82 72.576 L1420.16 72.576 Q1411.54 72.576 1408.25 69.3758 Q1404.97 66.1351 1404.97 57.6282 L1404.97 32.9987 L1399.5 32.9987 L1399.5 27.2059 L1404.97 27.2059 L1404.97 14.324 L1412.47 14.324 Z" fill="#000000" fill-rule="evenodd" fill-opacity="1" /><path clip-path="url(#clip570)" d="M1476.43 48.0275 L1476.43 51.6733 L1442.16 51.6733 Q1442.65 59.3701 1446.78 63.421 Q1450.95 67.4314 1458.36 67.4314 Q1462.66 67.4314 1466.67 66.3781 Q1470.72 65.3249 1474.69 63.2184 L1474.69 70.267 Q1470.68 71.9684 1466.47 72.8596 Q1462.25 73.7508 1457.92 73.7508 Q1447.06 73.7508 1440.7 67.4314 Q1434.38 61.1119 1434.38 50.3365 Q1434.38 39.1965 1440.38 32.6746 Q1446.41 26.1121 1456.62 26.1121 Q1465.78 26.1121 1471.08 32.0264 Q1476.43 37.9003 1476.43 48.0275 M1468.98 45.84 Q1468.9 39.7232 1465.53 36.0774 Q1462.21 32.4315 1456.7 32.4315 Q1450.46 32.4315 1446.7 35.9558 Q1442.97 39.4801 1442.4 45.8805 L1468.98 45.84 Z" fill="#000000" fill-rule="evenodd" fill-opacity="1" /><path clip-path="url(#clip570)" d="M1514.95 34.1734 Q1513.7 33.4443 1512.2 33.1202 Q1510.74 32.7556 1508.96 32.7556 Q1502.64 32.7556 1499.24 36.8875 Q1495.88 40.9789 1495.88 48.6757 L1495.88 72.576 L1488.38 72.576 L1488.38 27.2059 L1495.88 27.2059 L1495.88 34.2544 Q1498.22 30.1225 1501.99 28.1376 Q1505.76 26.1121 1511.15 26.1121 Q1511.92 26.1121 1512.85 26.2337 Q1513.78 26.3147 1514.91 26.5172 L1514.95 34.1734 Z" fill="#000000" fill-rule="evenodd" fill-opacity="1" /><path clip-path="url(#clip570)" d="M1522.77 27.2059 L1530.23 27.2059 L1530.23 72.576 L1522.77 72.576 L1522.77 27.2059 M1522.77 9.54393 L1530.23 9.54393 L1530.23 18.9825 L1522.77 18.9825 L1522.77 9.54393 Z" fill="#000000" fill-rule="evenodd" fill-opacity="1" /><path clip-path="url(#clip570)" d="M1583.54 45.1919 L1583.54 72.576 L1576.08 72.576 L1576.08 45.4349 Q1576.08 38.994 1573.57 35.7938 Q1571.06 32.5936 1566.04 32.5936 Q1560 32.5936 1556.52 36.4419 Q1553.03 40.2903 1553.03 46.9338 L1553.03 72.576 L1545.54 72.576 L1545.54 27.2059 L1553.03 27.2059 L1553.03 34.2544 Q1555.71 30.163 1559.31 28.1376 Q1562.96 26.1121 1567.7 26.1121 Q1575.52 26.1121 1579.53 30.9732 Q1583.54 35.7938 1583.54 45.1919 Z" fill="#000000" fill-rule="evenodd" fill-opacity="1" /><path clip-path="url(#clip570)" d="M1628.26 49.3643 Q1628.26 41.2625 1624.9 36.8065 Q1621.57 32.3505 1615.54 32.3505 Q1609.54 32.3505 1606.18 36.8065 Q1602.86 41.2625 1602.86 49.3643 Q1602.86 57.4256 1606.18 61.8816 Q1609.54 66.3376 1615.54 66.3376 Q1621.57 66.3376 1624.9 61.8816 Q1628.26 57.4256 1628.26 49.3643 M1635.71 66.9452 Q1635.71 78.5308 1630.57 84.1616 Q1625.42 89.8329 1614.81 89.8329 Q1610.88 89.8329 1607.4 89.2252 Q1603.91 88.6581 1600.63 87.4428 L1600.63 80.1917 Q1603.91 81.9741 1607.11 82.8248 Q1610.31 83.6755 1613.63 83.6755 Q1620.97 83.6755 1624.61 79.8271 Q1628.26 76.0193 1628.26 68.282 L1628.26 64.5957 Q1625.95 68.6061 1622.34 70.5911 Q1618.74 72.576 1613.72 72.576 Q1605.37 72.576 1600.27 66.2161 Q1595.16 59.8562 1595.16 49.3643 Q1595.16 38.832 1600.27 32.472 Q1605.37 26.1121 1613.72 26.1121 Q1618.74 26.1121 1622.34 28.0971 Q1625.95 30.082 1628.26 34.0924 L1628.26 27.2059 L1635.71 27.2059 L1635.71 66.9452 Z" fill="#000000" fill-rule="evenodd" fill-opacity="1" /><circle clip-path="url(#clip572)" cx="843.861" cy="384.903" r="14.4" fill="#009af9" fill-rule="evenodd" fill-opacity="1" stroke="#000000" stroke-opacity="1" stroke-width="4.8"/>
<circle clip-path="url(#clip572)" cx="1947.35" cy="1148.5" r="14.4" fill="#009af9" fill-rule="evenodd" fill-opacity="1" stroke="#000000" stroke-opacity="1" stroke-width="4.8"/>
<circle clip-path="url(#clip572)" cx="1792.31" cy="1502.36" r="14.4" fill="#009af9" fill-rule="evenodd" fill-opacity="1" stroke="#000000" stroke-opacity="1" stroke-width="4.8"/>
<circle clip-path="url(#clip572)" cx="1965.58" cy="1297.49" r="14.4" fill="#009af9" fill-rule="evenodd" fill-opacity="1" stroke="#000000" stroke-opacity="1" stroke-width="4.8"/>
<circle clip-path="url(#clip572)" cx="1664.63" cy="776.012" r="14.4" fill="#009af9" fill-rule="evenodd" fill-opacity="1" stroke="#000000" stroke-opacity="1" stroke-width="4.8"/>
<circle clip-path="url(#clip572)" cx="1701.11" cy="757.388" r="14.4" fill="#009af9" fill-rule="evenodd" fill-opacity="1" stroke="#000000" stroke-opacity="1" stroke-width="4.8"/>
<circle clip-path="url(#clip572)" cx="1719.35" cy="2023.84" r="14.4" fill="#009af9" fill-rule="evenodd" fill-opacity="1" stroke="#000000" stroke-opacity="1" stroke-width="4.8"/>
<circle clip-path="url(#clip572)" cx="1381.92" cy="1558.23" r="14.4" fill="#009af9" fill-rule="evenodd" fill-opacity="1" stroke="#000000" stroke-opacity="1" stroke-width="4.8"/>
<circle clip-path="url(#clip572)" cx="2293.89" cy="1558.23" r="14.4" fill="#009af9" fill-rule="evenodd" fill-opacity="1" stroke="#000000" stroke-opacity="1" stroke-width="4.8"/>
<circle clip-path="url(#clip572)" cx="1956.46" cy="1297.49" r="14.4" fill="#009af9" fill-rule="evenodd" fill-opacity="1" stroke="#000000" stroke-opacity="1" stroke-width="4.8"/>
<circle clip-path="url(#clip572)" cx="1272.49" cy="1409.24" r="14.4" fill="#009af9" fill-rule="evenodd" fill-opacity="1" stroke="#000000" stroke-opacity="1" stroke-width="4.8"/>
<circle clip-path="url(#clip572)" cx="1883.51" cy="1204.37" r="14.4" fill="#009af9" fill-rule="evenodd" fill-opacity="1" stroke="#000000" stroke-opacity="1" stroke-width="4.8"/>
<circle clip-path="url(#clip572)" cx="1454.88" cy="1856.22" r="14.4" fill="#009af9" fill-rule="evenodd" fill-opacity="1" stroke="#000000" stroke-opacity="1" stroke-width="4.8"/>
<circle clip-path="url(#clip572)" cx="1783.19" cy="1818.97" r="14.4" fill="#009af9" fill-rule="evenodd" fill-opacity="1" stroke="#000000" stroke-opacity="1" stroke-width="4.8"/>
<circle clip-path="url(#clip572)" cx="1053.61" cy="1483.73" r="14.4" fill="#009af9" fill-rule="evenodd" fill-opacity="1" stroke="#000000" stroke-opacity="1" stroke-width="4.8"/>
<circle clip-path="url(#clip572)" cx="971.537" cy="1576.85" r="14.4" fill="#009af9" fill-rule="evenodd" fill-opacity="1" stroke="#000000" stroke-opacity="1" stroke-width="4.8"/>
<circle clip-path="url(#clip572)" cx="1363.68" cy="1986.59" r="14.4" fill="#009af9" fill-rule="evenodd" fill-opacity="1" stroke="#000000" stroke-opacity="1" stroke-width="4.8"/>
<circle clip-path="url(#clip572)" cx="1226.89" cy="1688.6" r="14.4" fill="#009af9" fill-rule="evenodd" fill-opacity="1" stroke="#000000" stroke-opacity="1" stroke-width="4.8"/>
<circle clip-path="url(#clip572)" cx="1391.04" cy="1930.72" r="14.4" fill="#009af9" fill-rule="evenodd" fill-opacity="1" stroke="#000000" stroke-opacity="1" stroke-width="4.8"/>
<circle clip-path="url(#clip572)" cx="1555.2" cy="1558.23" r="14.4" fill="#009af9" fill-rule="evenodd" fill-opacity="1" stroke="#000000" stroke-opacity="1" stroke-width="4.8"/>
<circle clip-path="url(#clip572)" cx="743.545" cy="1558.23" r="14.4" fill="#009af9" fill-rule="evenodd" fill-opacity="1" stroke="#000000" stroke-opacity="1" stroke-width="4.8"/>
<circle clip-path="url(#clip572)" cx="1454.88" cy="1707.22" r="14.4" fill="#009af9" fill-rule="evenodd" fill-opacity="1" stroke="#000000" stroke-opacity="1" stroke-width="4.8"/>
<circle clip-path="url(#clip572)" cx="1445.76" cy="1520.98" r="14.4" fill="#009af9" fill-rule="evenodd" fill-opacity="1" stroke="#000000" stroke-opacity="1" stroke-width="4.8"/>
<circle clip-path="url(#clip572)" cx="1400.16" cy="1241.62" r="14.4" fill="#009af9" fill-rule="evenodd" fill-opacity="1" stroke="#000000" stroke-opacity="1" stroke-width="4.8"/>
<circle clip-path="url(#clip572)" cx="1208.65" cy="1558.23" r="14.4" fill="#009af9" fill-rule="evenodd" fill-opacity="1" stroke="#000000" stroke-opacity="1" stroke-width="4.8"/>
<circle clip-path="url(#clip572)" cx="962.417" cy="1111.25" r="14.4" fill="#009af9" fill-rule="evenodd" fill-opacity="1" stroke="#000000" stroke-opacity="1" stroke-width="4.8"/>
<circle clip-path="url(#clip572)" cx="1354.56" cy="2116.96" r="14.4" fill="#009af9" fill-rule="evenodd" fill-opacity="1" stroke="#000000" stroke-opacity="1" stroke-width="4.8"/>
<circle clip-path="url(#clip572)" cx="331.817" cy="210.894" r="14.4" fill="#e26f46" fill-rule="evenodd" fill-opacity="1" stroke="#000000" stroke-opacity="1" stroke-width="4.8"/>
<path clip-path="url(#clip570)" d="M1970.47 376.58 L2283.43 376.58 L2283.43 221.06 L1970.47 221.06  Z" fill="#ffffff" fill-rule="evenodd" fill-opacity="1"/>
<polyline clip-path="url(#clip570)" style="stroke:#000000; stroke-linecap:round; stroke-linejoin:round; stroke-width:4; stroke-opacity:1; fill:none" points="1970.47,376.58 2283.43,376.58 2283.43,221.06 1970.47,221.06 1970.47,376.58 "/>
<circle clip-path="url(#clip570)" cx="2062.91" cy="272.9" r="23.04" fill="#009af9" fill-rule="evenodd" fill-opacity="1" stroke="#000000" stroke-opacity="1" stroke-width="7.68"/>
<path clip-path="url(#clip570)" d="M2162.75 256.893 L2162.75 264.254 L2171.52 264.254 L2171.52 267.564 L2162.75 267.564 L2162.75 281.638 Q2162.75 284.809 2163.61 285.712 Q2164.49 286.615 2167.15 286.615 L2171.52 286.615 L2171.52 290.18 L2167.15 290.18 Q2162.22 290.18 2160.34 288.351 Q2158.47 286.499 2158.47 281.638 L2158.47 267.564 L2155.34 267.564 L2155.34 264.254 L2158.47 264.254 L2158.47 256.893 L2162.75 256.893 Z" fill="#000000" fill-rule="evenodd" fill-opacity="1" /><path clip-path="url(#clip570)" d="M2198.68 274.532 L2198.68 290.18 L2194.42 290.18 L2194.42 274.671 Q2194.42 270.99 2192.98 269.161 Q2191.55 267.333 2188.68 267.333 Q2185.23 267.333 2183.24 269.532 Q2181.25 271.731 2181.25 275.527 L2181.25 290.18 L2176.96 290.18 L2176.96 254.161 L2181.25 254.161 L2181.25 268.282 Q2182.77 265.944 2184.83 264.786 Q2186.92 263.629 2189.63 263.629 Q2194.09 263.629 2196.39 266.407 Q2198.68 269.161 2198.68 274.532 Z" fill="#000000" fill-rule="evenodd" fill-opacity="1" /><path clip-path="url(#clip570)" d="M2207.17 264.254 L2211.43 264.254 L2211.43 290.18 L2207.17 290.18 L2207.17 264.254 M2207.17 254.161 L2211.43 254.161 L2211.43 259.555 L2207.17 259.555 L2207.17 254.161 Z" fill="#000000" fill-rule="evenodd" fill-opacity="1" /><path clip-path="url(#clip570)" d="M2235.37 268.235 Q2234.65 267.819 2233.79 267.634 Q2232.96 267.425 2231.94 267.425 Q2228.33 267.425 2226.39 269.786 Q2224.46 272.124 2224.46 276.522 L2224.46 290.18 L2220.18 290.18 L2220.18 264.254 L2224.46 264.254 L2224.46 268.282 Q2225.81 265.921 2227.96 264.786 Q2230.11 263.629 2233.19 263.629 Q2233.63 263.629 2234.16 263.698 Q2234.7 263.745 2235.34 263.86 L2235.37 268.235 Z" fill="#000000" fill-rule="evenodd" fill-opacity="1" /><path clip-path="url(#clip570)" d="M2256.06 268.189 L2256.06 254.161 L2260.32 254.161 L2260.32 290.18 L2256.06 290.18 L2256.06 286.291 Q2254.72 288.606 2252.66 289.74 Q2250.62 290.851 2247.75 290.851 Q2243.05 290.851 2240.09 287.101 Q2237.15 283.351 2237.15 277.24 Q2237.15 271.129 2240.09 267.379 Q2243.05 263.629 2247.75 263.629 Q2250.62 263.629 2252.66 264.763 Q2254.72 265.874 2256.06 268.189 M2241.55 277.24 Q2241.55 281.939 2243.47 284.624 Q2245.41 287.286 2248.79 287.286 Q2252.17 287.286 2254.12 284.624 Q2256.06 281.939 2256.06 277.24 Q2256.06 272.541 2254.12 269.879 Q2252.17 267.194 2248.79 267.194 Q2245.41 267.194 2243.47 269.879 Q2241.55 272.541 2241.55 277.24 Z" fill="#000000" fill-rule="evenodd" fill-opacity="1" /><circle clip-path="url(#clip570)" cx="2062.91" cy="324.74" r="23.04" fill="#e26f46" fill-rule="evenodd" fill-opacity="1" stroke="#000000" stroke-opacity="1" stroke-width="7.68"/>
<path clip-path="url(#clip570)" d="M2169.19 344.427 Q2167.38 349.057 2165.67 350.469 Q2163.96 351.881 2161.08 351.881 L2157.68 351.881 L2157.68 348.316 L2160.18 348.316 Q2161.94 348.316 2162.91 347.483 Q2163.89 346.649 2165.07 343.547 L2165.83 341.603 L2155.34 316.094 L2159.86 316.094 L2167.96 336.372 L2176.06 316.094 L2180.58 316.094 L2169.19 344.427 Z" fill="#000000" fill-rule="evenodd" fill-opacity="1" /><path clip-path="url(#clip570)" d="M2191.08 338.085 L2207.4 338.085 L2207.4 342.02 L2185.46 342.02 L2185.46 338.085 Q2188.12 335.33 2192.7 330.7 Q2197.31 326.048 2198.49 324.705 Q2200.74 322.182 2201.62 320.446 Q2202.52 318.687 2202.52 316.997 Q2202.52 314.242 2200.58 312.506 Q2198.65 310.77 2195.55 310.77 Q2193.35 310.77 2190.9 311.534 Q2188.47 312.298 2185.69 313.849 L2185.69 309.126 Q2188.52 307.992 2190.97 307.413 Q2193.42 306.835 2195.46 306.835 Q2200.83 306.835 2204.02 309.52 Q2207.22 312.205 2207.22 316.696 Q2207.22 318.825 2206.41 320.747 Q2205.62 322.645 2203.52 325.237 Q2202.94 325.909 2199.83 329.126 Q2196.73 332.321 2191.08 338.085 Z" fill="#000000" fill-rule="evenodd" fill-opacity="1" /></svg>
